<mxfile host="app.diagrams.net" modified="2023-12-09T21:08:34.849Z" agent="Mozilla/5.0 (X11; Linux x86_64; rv:120.0) Gecko/20100101 Firefox/120.0" etag="zINAmlBMBDs5zg6Jy_6-" version="22.1.7" type="device">
  <diagram name="Page-1" id="CsWjRQVp03HX_oox6S4-">
    <mxGraphModel dx="2231" dy="1989" grid="1" gridSize="10" guides="1" tooltips="1" connect="1" arrows="1" fold="1" page="1" pageScale="1" pageWidth="850" pageHeight="1100" math="0" shadow="0">
      <root>
        <mxCell id="0" />
        <mxCell id="1" parent="0" />
        <mxCell id="BLccHEiTrVzVRM0DmXQl-1" value="Webshop User" style="shape=umlActor;verticalLabelPosition=bottom;verticalAlign=top;html=1;outlineConnect=0;" vertex="1" parent="1">
          <mxGeometry x="220" y="170" width="30" height="60" as="geometry" />
        </mxCell>
        <mxCell id="BLccHEiTrVzVRM0DmXQl-2" value="&lt;div&gt;Webserver + Reverse Proxy&lt;/div&gt;" style="shape=module;align=left;spacingLeft=20;align=center;verticalAlign=top;whiteSpace=wrap;html=1;" vertex="1" parent="1">
          <mxGeometry x="520" y="170" width="180" height="60" as="geometry" />
        </mxCell>
        <mxCell id="BLccHEiTrVzVRM0DmXQl-18" value="User Client" style="swimlane;whiteSpace=wrap;html=1;" vertex="1" parent="1">
          <mxGeometry x="279" y="174" width="120" height="60" as="geometry" />
        </mxCell>
        <mxCell id="BLccHEiTrVzVRM0DmXQl-6" value="&lt;div&gt;Event Bus&lt;/div&gt;" style="shape=module;align=left;spacingLeft=20;align=center;verticalAlign=top;whiteSpace=wrap;html=1;" vertex="1" parent="1">
          <mxGeometry x="870" y="430" width="100" height="50" as="geometry" />
        </mxCell>
        <mxCell id="BLccHEiTrVzVRM0DmXQl-7" value="&lt;div&gt;GraphQL&lt;/div&gt;&lt;div&gt;Gateway&lt;/div&gt;" style="shape=module;align=left;spacingLeft=20;align=center;verticalAlign=top;whiteSpace=wrap;html=1;" vertex="1" parent="1">
          <mxGeometry x="520" y="300" width="179.45" height="50" as="geometry" />
        </mxCell>
        <mxCell id="BLccHEiTrVzVRM0DmXQl-9" value="Service 1" style="shape=module;align=left;spacingLeft=20;align=center;verticalAlign=top;whiteSpace=wrap;html=1;" vertex="1" parent="1">
          <mxGeometry x="599.45" y="430" width="100" height="50" as="geometry" />
        </mxCell>
        <mxCell id="BLccHEiTrVzVRM0DmXQl-10" value="&lt;div&gt;Service 2&lt;/div&gt;" style="shape=module;align=left;spacingLeft=20;align=center;verticalAlign=top;whiteSpace=wrap;html=1;" vertex="1" parent="1">
          <mxGeometry x="599.45" y="550" width="100" height="50" as="geometry" />
        </mxCell>
        <mxCell id="BLccHEiTrVzVRM0DmXQl-30" value="" style="shape=image;verticalLabelPosition=bottom;labelBackgroundColor=default;verticalAlign=top;aspect=fixed;imageAspect=0;image=https://v1-11.docs.dapr.io/images/overview-sidecar-apis.png;clipPath=inset(3.68% 9.33% 2.94% 56.33%);" vertex="1" parent="1">
          <mxGeometry x="689.45" y="330" width="40.55" height="50" as="geometry" />
        </mxCell>
        <mxCell id="BLccHEiTrVzVRM0DmXQl-31" value="" style="shape=image;verticalLabelPosition=bottom;labelBackgroundColor=default;verticalAlign=top;aspect=fixed;imageAspect=0;image=https://v1-11.docs.dapr.io/images/overview-sidecar-apis.png;clipPath=inset(3.68% 9.33% 2.94% 56.33%);" vertex="1" parent="1">
          <mxGeometry x="689.45" y="460" width="40.55" height="50" as="geometry" />
        </mxCell>
        <mxCell id="BLccHEiTrVzVRM0DmXQl-32" value="" style="shape=image;verticalLabelPosition=bottom;labelBackgroundColor=default;verticalAlign=top;aspect=fixed;imageAspect=0;image=https://v1-11.docs.dapr.io/images/overview-sidecar-apis.png;clipPath=inset(3.68% 9.33% 2.94% 56.33%);" vertex="1" parent="1">
          <mxGeometry x="689.45" y="580" width="40.55" height="50" as="geometry" />
        </mxCell>
        <mxCell id="BLccHEiTrVzVRM0DmXQl-33" value="" style="shape=image;verticalLabelPosition=bottom;labelBackgroundColor=default;verticalAlign=top;aspect=fixed;imageAspect=0;image=https://v1-11.docs.dapr.io/images/overview-sidecar-apis.png;clipPath=inset(3.68% 9.33% 2.94% 56.33%);" vertex="1" parent="1">
          <mxGeometry x="950" y="460" width="40.55" height="50" as="geometry" />
        </mxCell>
        <mxCell id="BLccHEiTrVzVRM0DmXQl-37" value="Sidecar" style="text;html=1;strokeColor=none;fillColor=none;align=center;verticalAlign=middle;whiteSpace=wrap;rounded=0;" vertex="1" parent="1">
          <mxGeometry x="720" y="350" width="60" height="30" as="geometry" />
        </mxCell>
        <mxCell id="BLccHEiTrVzVRM0DmXQl-38" value="" style="endArrow=classic;startArrow=classic;html=1;rounded=0;" edge="1" parent="1">
          <mxGeometry width="50" height="50" relative="1" as="geometry">
            <mxPoint x="400" y="200" as="sourcePoint" />
            <mxPoint x="520" y="200" as="targetPoint" />
          </mxGeometry>
        </mxCell>
        <mxCell id="BLccHEiTrVzVRM0DmXQl-39" value="" style="endArrow=classic;startArrow=classic;html=1;rounded=0;entryX=0.401;entryY=-0.037;entryDx=0;entryDy=0;entryPerimeter=0;" edge="1" parent="1">
          <mxGeometry width="50" height="50" relative="1" as="geometry">
            <mxPoint x="709.5300000000001" y="250" as="sourcePoint" />
            <mxPoint x="709.63" y="328.15" as="targetPoint" />
          </mxGeometry>
        </mxCell>
        <mxCell id="BLccHEiTrVzVRM0DmXQl-40" value="" style="endArrow=classic;startArrow=classic;html=1;rounded=0;entryX=0.401;entryY=-0.037;entryDx=0;entryDy=0;entryPerimeter=0;" edge="1" parent="1">
          <mxGeometry width="50" height="50" relative="1" as="geometry">
            <mxPoint x="709.44" y="383" as="sourcePoint" />
            <mxPoint x="709.99" y="461" as="targetPoint" />
          </mxGeometry>
        </mxCell>
        <mxCell id="BLccHEiTrVzVRM0DmXQl-41" value="" style="endArrow=classic;startArrow=classic;html=1;rounded=0;entryX=0.401;entryY=-0.037;entryDx=0;entryDy=0;entryPerimeter=0;" edge="1" parent="1">
          <mxGeometry width="50" height="50" relative="1" as="geometry">
            <mxPoint x="709.44" y="510" as="sourcePoint" />
            <mxPoint x="709.99" y="588" as="targetPoint" />
          </mxGeometry>
        </mxCell>
        <mxCell id="BLccHEiTrVzVRM0DmXQl-42" value="" style="endArrow=classic;startArrow=classic;html=1;rounded=0;exitX=0.996;exitY=0.603;exitDx=0;exitDy=0;exitPerimeter=0;entryX=0;entryY=0.6;entryDx=0;entryDy=0;entryPerimeter=0;" edge="1" parent="1" source="BLccHEiTrVzVRM0DmXQl-31" target="BLccHEiTrVzVRM0DmXQl-33">
          <mxGeometry width="50" height="50" relative="1" as="geometry">
            <mxPoint x="730" y="480" as="sourcePoint" />
            <mxPoint x="998" y="492" as="targetPoint" />
          </mxGeometry>
        </mxCell>
        <mxCell id="BLccHEiTrVzVRM0DmXQl-43" value="Service 1 DB" style="shape=cylinder3;whiteSpace=wrap;html=1;boundedLbl=1;backgroundOutline=1;size=15;" vertex="1" parent="1">
          <mxGeometry x="460" y="405" width="60" height="75" as="geometry" />
        </mxCell>
        <mxCell id="BLccHEiTrVzVRM0DmXQl-45" value="Service 2 DB" style="shape=cylinder3;whiteSpace=wrap;html=1;boundedLbl=1;backgroundOutline=1;size=15;" vertex="1" parent="1">
          <mxGeometry x="460" y="527.5" width="60" height="75" as="geometry" />
        </mxCell>
        <mxCell id="BLccHEiTrVzVRM0DmXQl-51" value="&lt;div&gt;Dapr Placement&lt;/div&gt;&lt;div&gt;/ Master&lt;/div&gt;" style="shape=module;align=left;spacingLeft=20;align=center;verticalAlign=top;whiteSpace=wrap;html=1;" vertex="1" parent="1">
          <mxGeometry x="870" y="303" width="200" height="50" as="geometry" />
        </mxCell>
        <mxCell id="BLccHEiTrVzVRM0DmXQl-52" value="" style="shape=image;verticalLabelPosition=bottom;labelBackgroundColor=default;verticalAlign=top;aspect=fixed;imageAspect=0;image=https://v1-11.docs.dapr.io/images/overview-sidecar-apis.png;clipPath=inset(3.68% 9.33% 2.94% 56.33%);" vertex="1" parent="1">
          <mxGeometry x="899.73" y="311.5" width="26.76" height="33" as="geometry" />
        </mxCell>
        <mxCell id="BLccHEiTrVzVRM0DmXQl-54" value="Open Tel. Collector" style="shape=module;align=left;spacingLeft=20;align=center;verticalAlign=top;whiteSpace=wrap;html=1;" vertex="1" parent="1">
          <mxGeometry x="1040" y="430" width="140" height="50" as="geometry" />
        </mxCell>
        <mxCell id="BLccHEiTrVzVRM0DmXQl-56" value="Grafana / Prometheus" style="shape=module;align=left;spacingLeft=20;align=center;verticalAlign=top;whiteSpace=wrap;html=1;" vertex="1" parent="1">
          <mxGeometry x="970" y="552.5" width="100" height="107.5" as="geometry" />
        </mxCell>
        <mxCell id="BLccHEiTrVzVRM0DmXQl-57" value="Zipkin" style="shape=module;align=left;spacingLeft=20;align=center;verticalAlign=top;whiteSpace=wrap;html=1;" vertex="1" parent="1">
          <mxGeometry x="1160" y="550" width="100" height="110" as="geometry" />
        </mxCell>
        <mxCell id="BLccHEiTrVzVRM0DmXQl-60" value="" style="endArrow=classic;html=1;rounded=0;entryX=0.5;entryY=0;entryDx=0;entryDy=0;" edge="1" parent="1" target="BLccHEiTrVzVRM0DmXQl-54">
          <mxGeometry width="50" height="50" relative="1" as="geometry">
            <mxPoint x="1070" y="330" as="sourcePoint" />
            <mxPoint x="1120" y="280" as="targetPoint" />
            <Array as="points">
              <mxPoint x="1110" y="330" />
            </Array>
          </mxGeometry>
        </mxCell>
        <mxCell id="BLccHEiTrVzVRM0DmXQl-61" value="" style="endArrow=classic;html=1;rounded=0;entryX=0.5;entryY=0;entryDx=0;entryDy=0;" edge="1" parent="1" target="BLccHEiTrVzVRM0DmXQl-57">
          <mxGeometry width="50" height="50" relative="1" as="geometry">
            <mxPoint x="1140" y="480" as="sourcePoint" />
            <mxPoint x="1190" y="430" as="targetPoint" />
          </mxGeometry>
        </mxCell>
        <mxCell id="BLccHEiTrVzVRM0DmXQl-62" value="" style="endArrow=classic;html=1;rounded=0;entryX=0.597;entryY=-0.017;entryDx=0;entryDy=0;entryPerimeter=0;" edge="1" parent="1" target="BLccHEiTrVzVRM0DmXQl-56">
          <mxGeometry width="50" height="50" relative="1" as="geometry">
            <mxPoint x="1090" y="480" as="sourcePoint" />
            <mxPoint x="1160" y="550" as="targetPoint" />
          </mxGeometry>
        </mxCell>
        <mxCell id="BLccHEiTrVzVRM0DmXQl-64" value="" style="shape=image;verticalLabelPosition=bottom;labelBackgroundColor=default;verticalAlign=top;aspect=fixed;imageAspect=0;image=https://v1-11.docs.dapr.io/images/overview-sidecar-apis.png;clipPath=inset(3.68% 9.33% 2.94% 56.33%);" vertex="1" parent="1">
          <mxGeometry x="689.45" y="200" width="40.55" height="50" as="geometry" />
        </mxCell>
        <mxCell id="BLccHEiTrVzVRM0DmXQl-71" value="" style="endArrow=classic;startArrow=classic;html=1;rounded=0;entryX=0.5;entryY=1;entryDx=0;entryDy=0;" edge="1" parent="1" target="BLccHEiTrVzVRM0DmXQl-33">
          <mxGeometry width="50" height="50" relative="1" as="geometry">
            <mxPoint x="730" y="602.5" as="sourcePoint" />
            <mxPoint x="780" y="552.5" as="targetPoint" />
          </mxGeometry>
        </mxCell>
        <mxCell id="BLccHEiTrVzVRM0DmXQl-72" value="" style="shape=image;verticalLabelPosition=bottom;labelBackgroundColor=default;verticalAlign=top;aspect=fixed;imageAspect=0;image=https://v1-11.docs.dapr.io/images/overview-sidecar-apis.png;clipPath=inset(3.68% 9.33% 2.94% 56.33%);" vertex="1" parent="1">
          <mxGeometry x="510.00000000000006" y="460" width="40.55" height="50" as="geometry" />
        </mxCell>
        <mxCell id="BLccHEiTrVzVRM0DmXQl-73" value="" style="shape=image;verticalLabelPosition=bottom;labelBackgroundColor=default;verticalAlign=top;aspect=fixed;imageAspect=0;image=https://v1-11.docs.dapr.io/images/overview-sidecar-apis.png;clipPath=inset(3.68% 9.33% 2.94% 56.33%);" vertex="1" parent="1">
          <mxGeometry x="510.00000000000006" y="580" width="40.55" height="50" as="geometry" />
        </mxCell>
        <mxCell id="BLccHEiTrVzVRM0DmXQl-74" value="" style="endArrow=classic;startArrow=classic;html=1;rounded=0;entryX=-0.032;entryY=0.591;entryDx=0;entryDy=0;entryPerimeter=0;" edge="1" parent="1" target="BLccHEiTrVzVRM0DmXQl-31">
          <mxGeometry width="50" height="50" relative="1" as="geometry">
            <mxPoint x="549.45" y="490" as="sourcePoint" />
            <mxPoint x="599.45" y="440" as="targetPoint" />
          </mxGeometry>
        </mxCell>
        <mxCell id="BLccHEiTrVzVRM0DmXQl-75" value="" style="endArrow=classic;startArrow=classic;html=1;rounded=0;entryX=-0.032;entryY=0.591;entryDx=0;entryDy=0;entryPerimeter=0;" edge="1" parent="1">
          <mxGeometry width="50" height="50" relative="1" as="geometry">
            <mxPoint x="550.5500000000001" y="610" as="sourcePoint" />
            <mxPoint x="689.1" y="610" as="targetPoint" />
          </mxGeometry>
        </mxCell>
        <mxCell id="BLccHEiTrVzVRM0DmXQl-77" value="&lt;font style=&quot;font-size: 16px;&quot;&gt;MiSArch&lt;/font&gt;" style="swimlane;whiteSpace=wrap;html=1;startSize=40;" vertex="1" parent="1">
          <mxGeometry x="425" y="100" width="917.5" height="595" as="geometry" />
        </mxCell>
        <mxCell id="BLccHEiTrVzVRM0DmXQl-78" value="" style="shape=image;verticalLabelPosition=bottom;labelBackgroundColor=default;verticalAlign=top;aspect=fixed;imageAspect=0;image=https://www.vectorlogo.zone/logos/grafana/grafana-ar21.png;" vertex="1" parent="BLccHEiTrVzVRM0DmXQl-77">
          <mxGeometry x="560" y="507" width="80" height="40" as="geometry" />
        </mxCell>
        <mxCell id="BLccHEiTrVzVRM0DmXQl-80" value="" style="shape=image;verticalLabelPosition=bottom;labelBackgroundColor=default;verticalAlign=top;aspect=fixed;imageAspect=0;image=data:image/png,iVBORw0KGgoAAAANSUhEUgAAAZAAAAGQCAYAAACAvzbMAAA/iUlEQVR4nOzdCZQjVaE38P8EhBRLwhUBM97yYaNP6VFcwSoVkmllcQW1Gxc2FZFFtgCuoJcSkEW02VFRRPTxhGkXUD/XryftVhGX5zYt6rNdquz2PZdrIpoI2POdQPBDnOmlqpJblfx/5/TxSHfd+k8v+ae2e7fdvHkziIiIVitnOgAREWUTC4SIiCJhgRARUSQsECIiioQFQkREkbBAiIgoEhYIERFFwgIhIqJIWCBERBQJC4SIiCJhgRARUSQsECIiioQFQkREkbBAiIgoEhYIERFFwgIhIqJIWCBERBTN5s2bB/pDKWX6W0wZtlh1jzCdgbLN9GtgLz94BEK0FcqRjwRwjXLkvqazEKURC4RoK5RrXw6goFz7WuXIh5jOQ5Q2LBCiBynLQm6x6l4F4LDuf3qqcu3psizsaDgaUaqwQIgepCILFQCvf9B/ftbGiXUvMxSJKJVYIEQPolz7DVv51GllWdi2z3GIUosFQvQA0+Oj4wAO2cqn91GOPK3PkYhSiwVC1FWWhZ0qdnFyqa+p2MVzlSNl/1IRpRcLhKhr48S6VwJYrhx2Uq59Yp8iEaUaC4Tovmc+dgSw0tNTr1WOHOlxJKLUY4HQ0CvLwi7Ktb8BYHSFm+yuXPt25cg9exyNKNVYIDT0Nk6suwDAPqvcbFfl2lf2KBJRJrBAaKgpR+4C4LiIm79AOXLvhCMRZQYLhIZaWRZOBxB5mpIlnhkhGngsEBpaypGPqdjFN8Uc5lXT46PPTCgSUaawQGgoKUd2jh6uBpCPOdSail28Rjky7jhEmcMCoaGkXPtVAA5MaLh9lGtfltBYRJnBAqGhoxy5DsDVCQ97/PT46PqExyRKNRYIDZWyLKxRrn0NgB2SHrtiF68py8J2SY9LlFYsEBoqypFHAzigR8M/TjnyrB6NTZQ6LBAaKhW72NPbbit2saocuU0v90GUFiwQGhrT46PPA7Cux7t5WFkWXt3jfRClAguEhoJy5EMrdrEvU49U7OJFypGP68e+iExigdDAK8vCbsq1bwfQrxl0d1WuXVeOfEyf9kdkBAuEBt7GiXXHAdirz7stKtc+tc/7JOorFggNtLIs7ATgBEO7P1I5cg9D+ybqORYIDbSNE+vOBWAb2v0uyrXfbWjfRD3HAqGBpRz5BACmTyMdwSfUaVCxQGhgKdeuxpmqPSm9fvaEyBQWCA2kxap7AIDDTefoOnCx6h5jOgRR0lggNHCUI58K4MsAdjSdpWtbADdMj48eYjoIUZJYIDRQyrKQU659bRpOXT1YxS5eVZYFrhtCA4MFQgOlIgvrAexrOsdW7FWRhZeYDkGUFBYIDYyyLKR+jXLl2md0jpJM5yBKAn+RaWAoR04AONh0jmU8VTnyJNMhiJLAAqGBoBz5iIpdzMSyshW7eN5i1X2i6RxEcbFAKPOUI9co1/40gLWms6zQLgC+pBzJC+qUaSwQyryyLBwJ4Mmmc6zSbmVZ4KksyjQWCGVaWRZExS5eajpHFBW7eK5y5CNM5yCKigVCmbZxYt07AexuOkdEOyvXzsR1G6ItYYFQZilHCgCvNZ0jpnHlyEeZDkEUBQuEMqssC9XuNCGZlvZnV4i2hgVCmbRYdV9YsYtvNJ0jIa9brLq8oE6ZwwKhzJkeH90fwKcAbG86S0K2AXD19PjooaaDEK0GC4Qyp2IXzxrE312uG0JZM3B/hDTYlCMfD+C5pnP0yDOmx0efaToE0UqxQCgzyrKwJq1TtSdkTcUuXlOWhczfGEDDgQVCmaEc+SoAzzKdo8f2UY40vY470YqwQCgzhuUaQcUunrVYdbcxnYNoOSwQSr2yLOQWq+5VAPY2naVPSgA2lGVhO9NBiJbCAqHUU448HsDrTefosxcrR55pOgTRUlgglGplWdi9YhcvMJ3DhIpdPEc5ck/TOYi2hgVCqbZxYt1xAITpHIbsoFx72I68KENYIJRaZVnYGcAJpnMY9uqyLDzMdAiiLWGBUGptnFh3LgBpOodhu26cWHex6RBEW8ICoVRarLpHAeDzEPd59WLVfUNZFkznIPonLBBKne76GDcOwlTtCVkD4JKKLDzRdBCiB2KBUOoo1z7LdIY04veF0oYFQqmiHLkvgONN50ipI6fHRyumQxDdjwVCqVGWhVx3skRO47EV3ckWB3UyScoYFgilRkUWng3gqaZzpNzeFVl4oekQRGCBUFooR3Jt8BVSrn2mciSP0sg4FggZV5aFbZVr3wTgQNNZMuIZyrU/W5aFvOkgNNxYIGSccuTpAF5hOkfGHKwc+WbTIWi4sUDIKOXIXHeNc1qlil08XTmSF9TJGBYIGVWWhaMA7GE6R0YVy7LwOtMhaHixQMiYsiyIil18l+kcWVaxi+crR7KAyQgWCBmzcWLdRQB2M50j43ZRrn2p6RA0nFggZMRi1X0MgNeYzrGMWQAt0yFW4MjFqruv6RA0fFgg1HdlWegcdXw+7ZMl1oLGeQCuMZ1jhT6lHPkI0yFouLBAqO82Tqy7FMCI6RxL2AzgLV49/Nj6DZvOBRCYDrQCa5VrX2Y6BA0XFgj11fT46AEAjjKdYxk35Cb9i2bCJmbC5p21oHGa6UArND49Pnqw6RA0PFgg1FcVu/iG7voWqeX5wT9dlB6bmv1k95Rb6nW/v0R9wQKhvlGOfAKAQ0znWMZnvXo4++D/6PnBKwH83EykVakoRz7NdAgaDiwQ6gvlyPunak/zhfOW5wenbOkTXj3UtaBxcv8jrdo2ne8zn1CnfmCBUM+VZWF75dqfAfBM01mWUgsaF3j18Bdb+/zY1OznAUz1N1UkT1Ou/eWyLOxgOggNNhYI9VxFFl4M4LmmcyzjzzNh8/Llvsjzg0v6Eye2AzZOrDvcdAgabCwQ6qnuKoNnms6xjDsBHOzVwzuX+8Ja2PwWgI39iRVbtSwLaT5lSBnHAqGeUo48AUCqL+rWgoaXm/T9lXztTNjsHIWc1C2dtNtHOXKL13SIksACoZ5RjtyjYhcvMJ1jGT/06uGqHsDz6uEdnh+4AHTvYiWjYhc9PqFOvcICoZ5Rrv06ALuYzrGMy2bC5j2r3cirhz8C8OHeRErUzsq1TzAdggYTC4R6ovuuN+0vXL9ev2HTzVE39vzgyoxMtniccuSepkPQ4GGBUOKUI6Vy7W8BWGs6y1JqQeO0mbD5l6jbe/VwrhY03plsqp7YQ7n27cqR/2Y6CA0WFgglrjupX8l0jiUsAjh5bGr2U3EH8urhJQDuSCZWT+2mXPsK0yFosLBAKFHKkSMAXmo6xzJquUn/6iQGmgmbdwHIygvzi5QjH2s6BA0OFgglSrl26ifzqwWNRJfRXb9h00cBfCvJMXslCz8fyg4WCCVGOXI/AK8znWMZU90pSRIzEzb/7PnBAQB+kOS4PfLq6fHRZ5gOQYOBBUKJUI7crjtZYpp/pzov9Kf3YmCvHrZrQePE7vWVNMtV7OI1ypF500Eo+9L8x04Zolz7IgBPMZ1jGR/z6uFvejX42NTsNwB8vVfjJ+iJyrXfbToEZR8LhGKbHh/dH0DaV+37i+cHPV/ytRY0sjLZ4knT46MV0yEo21ggFEtZFh5SsYtpP3X1JwDP2tJCUUkbm5r9DIDYtwf3Q8UuXtP5+ZnOQdmV5j96ygDlyCqAdaZzLKUWNM7JTfrf69f+PD/oHI39T7/2F8PeypFnmQ5B2cUCociUI3MVu5j2qdobM2Hz/f3coVcPf52BZ2HuVbGLVeXIbUznoGxigVBkZVk4BsDupnMspRY0LvPq4d393m9u0v86gP/s934j2K0sC68yHYKyiQVCkShHPqZiFy82nWMZ/+3Vw4tM7dzzgzM6R0Cm9r9SFbt4EZ9QpyhYILRqypF7Kdf+Zufdq+ksS6kFjVNmwmbb1P69evjbWtA4x9T+V+FhnZ+ncuSjTQehbGGB0Kop1z4FgDCdYxk3Jf3EeRQzYfN9WTgKAVBUrn2q6RCULSwQWpWyLOwO4GjTOZbxY88PUjGlilcP764FjZ4/f5KQo5Qj9zAdgrKDBUKrsnFi3aVpP/qoBY2TvHoYeZ2PpHn18EIAxo+GVmAX5dqXmg5B2cECoRXrPrl8lOkcy/jo2NRszXSIB5oJm3/z/OD5GZnm5Eg+oU4rxQKhFavYxdRPBe75QaJTtSfFq4eLnh9k4t19xS7y4UJaERYIrchi1T0awEGmcyzjC7Wwmdop1Wth87MANpnOsQIHL1bdtB9pUgqwQGhZ0+OjhwD4MIBtTWdZQsPzg5NnwqbpHFs1Ezbv7k75vtl0lmV0fs43To+Ppv0NAxnGAqEllWUhX7GLV5nOsYzfe37wdK8e/rfpIMsZm5r9areMU6/zcy/Lwvamc1B6sUBoSRVZeAmAvUznWMaHvHr4E9MhViqt12m24DEVWXix6RCUXiwQ2qqyLOSUa59hOscy/uL5wdWmQ6xGd1r5UzKweiE6P//O74HpHJRO/MWgrVKOPAnAU03nWEotaJzv1cNfmc6xWrlJ/yoA7zOdYwX2VY48wXQISicWCG3RYtV9csUunm86xzJmvXoYa2nWxar79KjbKkc+VDky8um99Rs2vTUL64Z0fg8Wq+4+pnNQ+rBA6F8oR1oAvgSgaDrLMi6fCZuRp2pXjtwVwMti7H875dqvjbrxTNj8E4DrYuy/X0Tn90E5khfU6Z+wQOhflGXh9QB2NZ1jGbev37Ap1nobZVk4AcCamDmOKcvCjlE39vzgvQD+HDNDP+xeloWTTIegdGGB0D9RjrQrdlGZzrGM73t+cMBM2Iz8wrtYdfep2MU3JZClpBwZ+Ql9rx7+phY03p5Ajp6r2EVPOfIRpnNQerBA6J8o174cwE6mcyxh0fODE716+LeoAyhH7gngqwB2BvD3uIEqdvGsxaq7b9TtvXp4ZUaeDdlZufak6RCUHiwQ+ofugkJpv+//61499OMM0L1uUej+3ySWu90RwKeVI7eLsvFM2Px7btJ/FYC5BLL02kS3gIlYIPT/KddO/WSJtaAR6yG8sizsAOCY5BL9wx7dNeIjqwWNS5KL0zvKtTnZIt2LBUL3Wqy6pwOIfEdRn9w6NjX76TgDKEeeCUAmF+n/q9jFd5RlIfLpP68eXgegnmyqnjhhsery2RBigdC9kyW+FMBkyn8ffuf5QawlV5UjH16xi29MLtK/eHicC+ozYfPe6zsA7kk2VuK2AXDt9PjoC00HIbPS/IJBfZKFdT4AjHv18NdxBlCufXSvbxCo2MWTlCMj/1159fB7AL6cbKreyMjvDfUQC2TITY+PHgAg8tPYfXJLbtL/SpwBlCM7xXFccpG26mFlWTg8zgBZuRYC4JnT46Ou6RBkDgtkiJVl4SEVu3it6RzLaHp+UI0zQFkWdlSuvRHAox/8uVrQSPx0UcUuvlM5shB1+7Gp2U7WCQB3JZsscbnO709ZFrYxHYTMYIEMse4F5VHTOZZSCxrKq4fzccbo/juftqXPzYTNXlxveJRy7a+WZWHnqAPkJv0pALHm+eqTJypHxro2RdnFAhlSi1W3c/SR9qna75wJm7GOkJQj11TsookpOPapyMJL4wzg+cF7knjQsdcqdvHMxarL15IhxB/6EOquMncbgN1MZ1lKLWhcEeeJc9z3b+28iO+RXKqVU659YlkWIs+15dXD3wO4PtlUPfEIALeUZeEhpoNQf7FAhpBy5JsBHGI6xzI2evUw1nTyZVnYrmIXL0ou0qrtpxz5ijgDrN+wqfOz+l1ykXrmpd1ThTREWCBDRjny0RW7+GbTOZZxu+cHB82EzVacQZQjTza9HG/FLl5QloV81O1nwuYfa0Gjl8+uJKZiF89Rjnyk6RzUPyyQIaNc+1QAkV/Q+sHzg/d49TD2xW1D1z4ebM+KLDw/zgAzYfNGAD9ILlLP7Khc+2TTIah/WCBDRDlyDwBHmc6xjJ/Vwuan4gxQloU1i1X33Ss8+khiMsUlKdeOVWRePVz0/OAFABaSS9Uzry7LQtrXkqGEsECGiHLtzovqLqZzLKUWNF4/EzZjXThXjpwAsNI7zBbj7GuFxhar7rUxL6gHtaAR63mYPnnYxol1Jq87UR+xQIZAWRawWHXPA3CE6SzLuHlsavZLcQboXji/MLlIiTkh7gV1rx7e3F1qOO1es1h1eUF9CLBAhkBFFp4O4BzTOZbj+UGsqdpx37/1uQBGkkmUrIpdjHV9YCZsdr5HWZjmpPO6cqly5BNMB6HeYoEMgQys87EZwNtqYfM7cQdSrv36ZCL1xNOVI58aZ4Ba2JwG8O3kIvVOBn7vKCYWyICbHh/tvCOP9UR0H3wkN+mf33mHHUf333pgYqmSl1OufWk5+jRZ90/5fkI/Lv4n4Kjp8dGy6RDUOyyQAVaWhXzFLl5pOscy9PoNm2KvcKccuX3FLkY5vdPvqUIqypEvijOAVw87R2rPAfCX5GL1RsUuXsMn1AcXC2SAVWRh3PSDdCvw4ZmwGftJa+XaCsDjI2za93fyFbsY+zRbd3r7W5JJ1FOjFVl4gekQ1BsskAGlHLmdcu20T5bY8vwg9hGScuQTAWTpfPvYYtU9LO4gnh9MZuFUlnLtM+MsskXpxR/qAHrA+hdPNp1lKbWgcaFXD+fijqNc+1IA2yaTqi86WaeUI7c4xfxKefXwhwAuSy5WzzxTufZnupN40gBhgQygjRPrzgXwDNM5lvEZrx7GviV1enz0ed3rAVmzTdwL6rhvskUPQKylfvvkucqRbzIdgpLFAhkwypE7AEjzrawd/wvgxXGfOEdC1xMMKldkIcp1m3+YCZt/AZD2VSXvVbGLVeVIXlAfICyQAVOWhZMBWKZzLKUWNC7NTfqxJ0tUjnxMym/bXVbcebJw31HIBwD8LJlEPbVLWRZeazoEJYcFMkCUIx9ZsYtvN51jGZu8epjIeXvl2pcAiPuO1vRF6OOUI/eOM8BM2Py95wdPB/Dz5GL1Rnd6+91N56BksEAGiHLtKwDsaDrHEjbXgsaJM2Ez9ov2YtU9B0DsO5lSsGTstt0ijMWrh7oWNLIwlbrYOLHuUtMhKBkskAGxWHWfD+BQ0zmW8c2xqdmvxh1EOfJxAM5LJlIqvGCx6sZ+YntsavbzGVk35MjFqvsU0yEoPhbIAFCO3AvAR03nWE4taMSeLBHpn+8qqpu667XEktT3uMfWALhNOXKt6SAUDwsk48qy0HlBvSrl63wsAjhtbGr2E3EHUo58LIDjk4mVKmuVa3txB/HqYeeNxHQykXrqEcq1J02HoHhYIBmnHDkO4BDTOZZxXW7SvyKJgZRrX5zAhfO0OlY5cl2cAbpTvneO0O5MLlbPHD49PnqQ6RAUHQsk4yp28Y2mMywniXU+cF9Zygxc54ljW+XasY+uvHp4B4BM3C5bsYuxJ9Ikc1ggGTY9PloBsK/pHMv4pFcPE7m9NIlnJrbgrh6MGccry7IQ+3RkbtK/GcD/SSZST43FXSOFzGGBZJRy5I4Vu3iN6RzLuNPzg9OSGGix6j4LwOlJjPXgoXswZhy7bpxYd3YSA3l+cAqAVhJj9dA2yrWvVY7M0lxm1MUCyaDOO1Tl2j6AWA+g9VotaHhePQzijtO9bfdLaX/CPkGnLFbdsbiDePVwrhY0LkgmUk/tq1z7S2VZ2MF0EFodFkgGbZxYdwyAtK83/YeZsHl1EgMp134dgHwSY2XE9gBu7Rxlxh1oJmxeDiD2nGN9UOmuX0MZwgLJmLIsdF5ITzGdYxkNAAd59TD26ZOyLBQBHJlMrEzZqSwLx8UdxKuHd2ZlskXl2tWyLGxjOgetHAskY5Qj35L2VQZrQeNtuUn/u0mMtXFiXeffu1sSY2VNxS6eU5YFEXec9Rs2vR3At5JJ1VNPUo5M+5sjegAWSIYoRz6mYhfTvqbCd716mMjFfeXIRwJI5CL8EmLPCtxDiVxQnwmbf/b84AAA308mVu9U7KLHJ9SzgwWSIcq1T+ueH08tzw/eMxM2E5mgULn2sX249pHmAul4XRJraHj1sA0gC09+F5Rrn2A6BK0MCyQjFqvukzNwLeDntbD58SQGUo7cFcBrkhgr43Yuy8JRSQy0fsOmDQB+kcRYPXaccuS/mQ5By2OBZEB3eouvASiazrKUWtA4ZSZstuOOU5aFonLtzr9XJpMs2yp28TzlyNhraMyEzb/WgsapyaTqqYcr1/5W9xQmpRgLJOXKsrBGufa1ANJ8j/w9naOFsanZzyUx2MaJdW8F8LgkxhoQa5Vrf6MsCw+NO9DY1OxnAHwymVg9tVt3fRtKMRZIylVkwQGwv+kcy/hybtL/UBIDdZ9IHsTZduPaa+PEulckMVBSc5P1waHdZYsppVggKadc+w2mMyynFjQSW2GuLAtHpP1UnUHHJ/GcRC1s1gG8M5lIvaVcO/WThQ4zFkiKTY+PPh/Ai03nWMZNY1Oz/zeJgcqysEPFLp6fxFirYHpN9NV4gnLkq+MOMhM2N+cm/bM7P7tkYvXUa5QjXdMhaMtYICmlHLlrxS5eaTrHMhqeH5yZ1GDKkWcYuHBuek30VanYxfPKspDIuvfdn92fkhirh3LKta9Rjkz17evDigWSUsq1PwbgUaZzLOOjXj38bRIDLVbdXMUu9mK69kHz8IosvDSJgbo/u48kMVaPPUm5dlau2wwVFkgKTY+Pdl4gnmM6xzKanh9cnsRAZVno/B5eD6CUxHiDTrn2icqRifzten5wBYDYt173wcnT46MHmA5B/4wFkjJlWdipYhcvM51jGX/w/MDx6uHPkhhMOfIYAMckMdaQcJRr35TEBXWvHv53LWhclEysnlpTsYvXlGVhUJczziQWSMpsnFh3btofoKsFjbd49fDHSYzVvXB+XhJjDZmXKUcm8qS+Vw8vysjqheu618koJVggKdJd/+H1pnMs4w8zYfP6pAaryMJhAB6R1HjDpGIXE/ldmQmbfwPQ+Tn8bxLj9VLFLp6R1Ok7io8/iBQpy8IpaV84qRY03uPVw0TuXCrLQq/WOV+NtK2JvhpPVI58VhID5Sb9u2tB491JjNVju5dlgac7U4IFkhKLVbdcsYvnmM6xjDu8epjYQ4PKkS8F8MykxosobWuir4py7UvLsrAmibG8ejgJ4EdJjNVLFbt4MZ9QTwcWSAooRz6tu+Z3Ivf390otaJw0EzYTeceuHLlTxS5m4eJt2j1dOfLlSQw0EzY7RyGdI8LNSYzXQ7sp1/6mcmSqF1YbBiyQFFCufSaAtN9d8r6xqdmNSQ2mXPsyAI9OarxhluTzM2NTs18F4Cc1Xg8J5dpcvdAwFohhypGP7l7ATLMfeH5welKDdaem4FofyXnGYtWNPcXJ/WpBIysP7R1dloXY09xTdCwQg7oXka9O+YXzzbWgcVJ3RbvYuv/mSwEkct6e7nXvg5jKkYnM2jw2NfspACdnYJoXsXFiXVbKbiCxQAxSjjwcwEGmcyzjQ2NTs19PajDlyInOO+akxktA2pe0XTHl2u9O6oJ6btLvvLF5XxJj9djRfELdHBaIQRW7mPqpqpNeOyKpZxcSNDAFAmDfiizsm9RgWVk3pGIXU7/kwaBigRhQlgUsVt3zADzVdJZlfNqrh3ckNVh3ad5EnlugLVOufWJSY3n18JcANiQ1Xg8dvFh1jzAdYhixQAxQjjwaQNqf+fi95weJrp9dC5t31ILGsQDmkhyX7tUG8AHPD1SSg3ZvnmgmOWYPPATAR6fHRw80HWTYsED6rCwLomIX035q4H88P9iv+w40MTNh8+9jU7MfXr9h0+M8PzgEwC1Zf5AvBX7VKWXPD0Ru0j/Oq4e/TnJwrx7O14LG25Mcs1cqdvHqsixw3ZA+YoH02caJda8CkPZbDz/g1cNf9GrwmbB5t1cPv5Cb9F/WvZ2XJRKN7/nB48emZq9P6i65LZkJm+8FsNCr8RP0mO7catQnLJA+KstCvnt7ZJr92fODa/u1s9yk/+HO0Q6AawD8vl/7zbhbPT84dP2GTeu9enhnr3fm1cO/eX5wIIA/9npfcSnXPqO7vgz1Ab/RfaQceTaAEdM5llILGud69fA3/dynVw+/k5v0X79+w6ZH1YLG2/q8zGqW1kT/oucHT89N+od59fC27iy6feHVw021oPGWfu0vhv2UI483HWJYsED6ZLHqvigDtxv+wKuHV5ja+UzYvHNsavb89Rs2jXh+cFyfptRI+8NyzXtL3Q/s3KR/sFcPbzcVxKuH1wGom9r/SlXs4gXKkY83nWMYsED6QDlyDwCfAJD2C3xXz4RN489FzIRN7dXDD3h+8AwAfTudlkK/9fzgaWNTs55XD0PTYWbC5mbPDxKbjbmHhHLtLylHpv3vLfNYIH2gXPssALGXH+2Di6bHR89TjtzNdBDc944X6zdsOqkWNA4D8JmMrN2dhO8COMXzg32SWjY4KWVZ+CGAlukcK/DwsiycYDrEoGOB9Fj3UPo00zlWSFTs4jnKtX+5WHVvnR4ffXkS627HMRM2MTY1e2tu0n+h5wf/DuC6jF23WI1NtaAxvn7DpqflJv2rvHr4O9OBcF9pFJQjD1+suhsqdnEWgGU600pU7OI7lCPXms4xyFggPVSWhTXKta/NwFTtD7YDgBdV7OJ/bpxY95Pp8dETlCN3MR3Kq4dBbtJ/necHewN4B4Ce3WrcR/cAuN7zg2et37Bpn7Gp2Y/PhM1UrMehHLnnYtV998aJdYFy7ZsBjGfkSPp+BeXa7zEdYpCxQHqoIgvuAEzdsVfFLl6rXPv3i1U3sWky4vDq4c9zk77y/GAfAF8znSeGuwC8ODfpH+vVw6/PhM1UPA/TebOwWHXfo1z7DgBndF6ITWeK4WXKkY80HWJQsUB6SLl26idLXIXOO89rFqvul5Ujn6McaTpPp0juXL9h03NqQeNUAN+LOEzfboV9gN8AuMTzgyflJv3PGNj/FilH7j49PqqUa/8EQDUDN32siHLttN/9mFnbmg4wiMqykNs4se5KAIeaztIDz1au/WwAv1OufZPnB+/26mFgKsxM2Pzb2NRs53t95WLVvRXAi1Y5RN9PF3l+UO4cRfV7v1tSloXtlSOPqNjFic5Bc8rXponqxMWq+4PcpH+d6SCDhkcgPdB9kCmxZUZTajcApynX/vli1b1BOfLgFMxDlImLu6afPbl3US9Hjk6Pj75948S6X1Xs4gcBHDKg5YHu0fP7p8dHX2A6yKDhEUjClCOHbX2ChwA4Rrn2MQr4jucHh3j10NSUJIP6ApgY5cjtlGt/GMDLTWfpt+7fZWpOGQ4CHoEkrCwL4wAeZTqHIU9Vrj07PT56jnLkXgb2n5UjkL5Tjlw7PT56WvfC+NCVR9ezlCMd0yEGCY9AElSWhZ0rdvEy0zkM261iF8/rfCjXvr0WNC7y6uGtfbrDaMc+7CMzyrKwjXLkYRW7eEbKlhE2Jadc+9pa2HzaTNhM+xQ2mcACSdDGiXUegEeYzpEi+1Xs4icqdrHzrvdjnh/cnOQKh1uwU4RtjE/dkjTlyKcr154A8JIhPhremicpR548NjV7uekgg4CnsBKyWHUfPgQXzqN6HIBzlWv/cLHqHt3D/UQ5hTUwBaIcuWax6l6sXLsO4EyWx5ZV7OJZi1WXr30J4DcxAWVZ2AXAFwflvvke6hzx3rBYdT+rHHlk9/uWpKG8iK4cufdi1X2bcu3vARikZ496RXaOiMuykLUZIlKHp7ASsHFi3TsBPMF0joxYA+B5yrWfp+5ba/t9nh9MevUw1op3ypG5YboG0jna6D6TUwXw3O73lVZuQjny22NTs5eYDpJlLJCYOu/+AHABm2gKAN6gXPtU5dq1WtC4yauH/zkTNlc9WaJy7d2G4UVUOfJxyrVP77wAAnio6TwZ9RcAXwCwyXSQrGOBxOTVwx8r11YAzjOdJcO2B3BwxS52Po7z/OAFXj1srHKMgX8xXay6rwdwecYmNEyb3wJ4Tm7SZ3kkgNdAEpCb9M/3/EDWgsabAPyv6TwZ9yzl2ncsVt2rlSOfuYrtjM8W3AvKkfZi1b1kser+AsBVLI/IflkLGp2/08ezPJLDI5CEdNcRv6QsC1cqR762YhePAvBUlnQk997Rply78/HVWtC4eCZsfs6rh0s9S1KKuK+7Im7XM2VZ2KkiCwd2b8Udz+ByAGnyRc8Pzvfq4VdNBxlELJCEzYTN1v2T+3XPV78FwCv5vY5s/4pd7Hz8Sbn2xzw/eJdXD+e28HW7Rxw/FVOo476jDalc+xQAxwEQpvNk2G8BfNzzgxtNriE/DPjuuIe8enhHbtI/BsDBAFKxulyG7QLgBOXaP16sui/Zwud3NZApEcqROy9W3QuUa/+0exsuyyO6b3l+sC436Z/M8ug9Fkgf5Cb9ac8P1taCxssAfN90nozbDsCGxar7nenx0TPLsrBz978XDedaNeXIXafHR8/urr/xVs7lFdnfAfi1oHHi+g2b9vfq4R9NBxoWPK3SJ149vAfALWVZ2KAc+fyKXTwSwPMA7Gw6WwZ13vg8pWIXOx9n14LG1Vl6Dke59suVaz8TwFh3+WCK5m4A/+H5wYVePfyp6TDDiAXSZzNhc/PY1OxnAHymLAsPVY48tWIXTxmG21B7RFTs4jmmQ6zShaYDZNwmAB/tzq02COviZxZPYRk0Ezb/ODY1e253be9bTechyoBOcTwxN+lfxPIwjwWSAl49/E1u0j/M84P9ukWSmjuDhoCJNdFpdf4CYKoWNA5dv2HT0V495FTsKcFTWCni1cNvefXwMOXIJyjXPgLAywDsaTrXgOv7mui0Yo1a0LhqJmxeZnCVS1oCCySFvHr4Q68evrksC29TjnxlxS6+BcBjTeci6pMve37w0VrYvHUmbP7JdBjaOhZIis2EzbvHpmY/rBz5H8q1T+50S3cCQqJBVc1N+sO+qmdm8BpIBnj18J7OH5XnB6MAJrvnhIkGxQKAyz0/2JflkS08AskQrx7+xquHZyhHXgjgJd3rJPubzkUU0a9rQeNirx5+cCZs8maGDGKBZJBXD39370JM9fB9ypEHKNc+G8BBpnNl1MAsaZsR93Qf/vtoLWzORFn7hdKDBZJxXj38Sudjseru0/nDBPB405kyhgXSP38F8MLcpD9tOgglg9dABkRu0v/B+g2b9qsFjdMABKbzED3ADwG82fODvVkeg4VHIAOkO5X8FWVZeG9FFsrKtY/kVPJk0LdrQeMCrx7eOhM2+bzNAOILywCaCZt3zYTNL3n18EvKkecq134TgFfwFmDqgyaAqz0/+EgtbP54JmyazkM9xFNYA86rh7/ITfonANgNwEdM56GB9kvPD56cm/Tf6tVDlscQYIEMidykf9f6DZuOqQWNFwH4puk8NFC+6PnBUes3bHrSVlaLpAHFU1hDpDuV/KfLsvDpiiw8uiwLR3Wnkh/mFfBStyZ6RiwC+Gx3vXGu/DekWCBDaCZsdj7+G4Aqy8K7lSNP7C5wNYy3AHPm49X5dS1ovGsmbN7Elf+IBTLkZsJmc2xq9mIAFy9W3WMBvJ+nNmkrap4fvNCrh3eaDkLpwBcK+ofcpP9Bzw+eBOA/eWqHuu4G8CHPD569fsOmg1ge9EA8AqF/0p1K/pXKkTuUZeHwil18M6eSH0qNzhsJzw8u9urhL02HoXRigdAWefXwrwBuKMvCjcqR4xW7eBSAZwOwTGejnvpuLWicPxM2b+PKf7QcFggtaSZsLo5Nzd4C4JbFqvskAF/sPlNCg+dqzw9O8eohnxqnFWGB0IrlJv3vKUeuU659OoDOEYltOlNcNU4jfv+ysR+thc07+PAfrQYLhFbFq4e/8+rh2QDOVo4sd6eSP9B0rqiGeI6mn9WCxo1ePbyKy8ZSVCwQisyrhzOdD+XI/boTN44DKJnORVu1+QEP/3E2AoqNt/FSbF49vD036Z/q+cHeAOqm89AW3Q3g2Nyk/0KWByWFBUKJ8ephY/2GTeVa0HgdgK9wsaZU+FUtaLze84PdcpP+h0yHocHCU1iUqJmwedfY1Ox1AK5TjhzpTiV/DIDtTWcbIp3i/lotaHzEq4cf4bKx1Cs8AqGe8erhXG7SP97zg70AVAF8x3SmBxm0I6S77l0r3w/+PTfprx+bmr2e5UG9xAKhnvPq4W9yk/5lnh/sC+AK03keYJAKJABwQG7SP8Grh78wHYaGAwuE+sarh5vXb9h0mucHBwK4AYA2nWkAfLsWNA7z/GDP3KTPi+PUV7wGQn3VnUr+y149/HJZFgrKkSdV7GIVwO6ms2VIE8BttaDxUa8efoEP/5EpLBAypjuV/EVlWbi8IgsHd58leTGPjLfqj7WgcblXD6/gw3+UBvxDJeNmwmbLq4efyk364wAO51TyW3Sr5wdPGJuafQfLg9KCBUKpkpv0P955oQTgAfiJ6TyGbQZwm+cH++Um/cO8ejhvOhDRA7FAKHW8evjT3KR/7voNm0ZrQePlAH7Qo12l9Ujn1wAu9fzgSblJ/1CvHn7LdCCiLeE1EEqt7lTyN5dl4ZaKLOyjXPsIACcC2CmhXaRtPfT/rgWNi716eONM2ExruRH9A49AKPVmwuZmrx5+PzfpvxHAUwCEpjMl7K8Azu5e4/gAy4OygkcglCm5Sf9nZVl4QkUWXtS9ayuzU8kDaHfXG+8cdfzKdBii1eIRCGXOTNj8k1cPb8xN+gd5fvB0ALel8HTUUr4DoOr5wV65Sf8klgdlFY9AKNO8eni7Vw8PVY4slmXhiIpdfCOAfzOdayu+UQsa53v18HN8+I8GAQuEBoJXDxsArlGOvEG59qdSdmqrc4RxQm7S/7zpIERJ4iksGihePfzr+g2bnuf5wf4A3g9gqTXPe70e+h9qQeNt6zdsehLLgwYRj0Bo4MyEzXtmwubXvHr4NeXIdyjXPgvAEQB2e9CX9mI99PuXjb2xFjY/NxM27+zBPohSgUcgNNC6U8lXPT/YoxY0ngfg6z3a1T0Apjw/eEp32dgNLA8adDwCoaHg1cPOkcHnOh+LVVcBODfB4b8C4OW5SX8hwTGJUo8FQkMnN+l7ypEfLMvCC2IO1aoFjWO5bCwNKxYIDSWvHoYA3htzjAaA65NLRZQtvAZCRESRsECIiCgSFggREUXCAiEiokhYIEREFAkLhIiIImGBEBFRJCwQIiKKhAVCRESRsECIiCgSFggREUXCAiEiokhYIEREFAkLhIiIImGBEBFRJCwQIiKKhAVCRESRsECIiCgSFggREUXCAiEiokhYIEREFAkLhIiIImGBEBFRJCwQIiKKhAVCRESRsECIiCgSFggREUXCAiEiokhYIEREFAkLhIiIImGBEBFRJCwQIiKKhAVCRESRsECIiCgSFggREUXCAiEiokhYIEREFAkLhIiIImGBEBFRJNuaDtBP+Xx+jWVZ25vOEdNmrfXflvsiIcR2Ud8gtFqtdrvd3urn8/n8NpZlPSTK2Kuwon9nP8T8vVnUWt+VcKR/IoTo/Cy2iTHEPVrre3q1j6V+n2L+LvX8e/tAMb4HW/9jyrihKhDLsv5NCPEL0zli+qXW+lHLfZEQ4osAyhH3Idrt9p+29knLso4TQlwbceyVhxCi8z93A7gTQBNAA8ACgM7P8Lda6zkA3221Wne02+2/9yqHZVlPFEL8V8TNa1rr9QlH+gchROd3+rsAHhpxiLtbrVYFwDeW2c8GAIdG3Eep3W7/dkufsCzrKCHEhyKO2ym9J2utfxRx+1URQtwG4JAIm67pQZxUGKoCoUzqvOsT3Y+Ofe7/RLdgOv/7GwAfA/C+ubm5n5kKaoIQwotRHh03LSwsLFkeKbatEOJVWuuzTAcZVrwGQoPgEQDOBPDjkZGR6VKp9GohxG6mQ/VaqVRyALwixhC/11q/PcFIJhybz+d3Mh1iWLFAaJBsA2C9ZVnXCyH+d2Rk5P8KIfY3HaoXhBCPtSzrZgDbRRzinlardaTW+tcJR+u3XYQQ5/RpXzv2aT+ZwQKhQTYmhPjKyMjIx4QQjzcdJimlUml/IcT3ADwy4hDzWuunLSwsfCHhaEZYllUdGRnZrw+72qUP+8gUFggNg5cJIX44MjIyYTpIEizLeg+AfIwhztNafz/BSKZ1jsI6R5t8PeszfsNpmFxfKpVeYDpEHKVS6WgAT4sxxLfn5+ej3vWUZjvl8/nXmA4xbFggNEx2sizrk6VS6SWmg0QhhHi8ZVnXxBjiD1rr8Xa7nYrna5JmWdYF+Xw+6895ZQoLJHsG9qGkPtnWsqz/GBkZOSWfz2fm/nwhREkIMRXjQu49rVbrCK31rxKOlia7CyHeaDrEMGGBZM8G0wEGQB7AFZZl9ewBvyQJIfJCiG8AeGyMYV43KBfNl2JZ1mmmMwwTFki2/HF+fv5q0yEGhRDi7Vk4ChFCvAPAnjGGuG5ubm4Qr3tsya6lUulFpkMMCz6JniGtVqvabrf/x3SOmH4KYHaJz3de0Lfv/u+O3aesJYBCD7KUhRATCwsLt/Rg7ESUSqVDAcR50vo78/PzpyYYKfUsy7pECPEZrfWi6SyDbqgKpNVqLQBwTexbCPFiAFHPz3b+EN6otb4x4VgmfGJubu4tq91ICLEzgJF8Pv8My7I67zDXd4smFsuyzsnn87csNXmkKUKIR1mW9aEYcyndf9E8ff+43nqsEOKrrVbrgF7OkUZDViDtdvtv7Xa73u/9CiH+LUZ5dPzfubm5dycYKXO01n8G8P3ux7UjIyOdI5IbALw45tBPsCzrMe12O3VzaAkhznvAHGBRXKq1/mWCkbKk80ajU543mw4yyHgNpA9iTrWwudVqnZ9gnIEwNzfXnJ+fn2i1Wm/qzsoaWT6fPyi5ZPHl8/k1IyMjZwI4PMYwn5ifn78qwViZI4R4tekMg44F0mOlUuk5AF4bY4j3LiwsfCXBSAOj3W7/fWFh4ZJWq/USAJHXhbAsK+o05T0hhHhz5+ihOxNxFB+cm5t7abvdvjPhaFlzsBDiQNMhBhkLpIfy+fxOlmW9P8YQv56fn39TgpEG0sLCwqe11k8H8MeIQzxTCJGKifJKpVLFsqzzYgzx3fn5+ZMTjJRpQohL8vk4s77QUlggPbR27dojASy7+NMSLm+3239OMNLA0lp/D0DUu6l2EEJEXXwrUZZlTcZZXVBrfeYQXjRfypMsy3qG6RCDigXSI0KIh3XXqIjq2/Pz89cnGGngaa0/EWPzsQSjRFIqlV7TecGLMcSGVqtVSzDSQBBCnGQ6w6BigfSAEEIKIb4D4NERh/iW1vpZSy0rS/+q1WpNd5e+jcLYufJ8Po+RkZGjLcuKc9H7U/Pz88fy4GOLXjkyMvIq0yEGEQskYZ0Xg+564VHXarhLa32s1nogJ7zrpe49/9+LuPloPp838vcghDgRwIcBWBGHuH5ubu7FPN25VWsAfEgI8UzTQQYNCyRhlmU9BUCcKcNv1Vr/MMFIw2Y+4nbbWpbV96VRhRA7WJZ1UYwh2lwTfGWEEJzuPWEskITFfObjHq31hQnGGUZ/ibFt1NtmIxNCnB9nmpZWq3WO1lonmyoTNkfY5hX5fH73HmQZWiyQBJVKpcNjPhn9Lq31fyUYaRjFeagw8t1PUXTXJanGGGJKaz2sMxRsAnD3Krex1q5dG+cWaXoQFkhChBCPsyzryhhD3Do/P+8lGGlYxXmeo29XoEdGRg6xLCvOXXad35fXDPFF8z8AuC7Cdq/t/K32IM9QYoEkoLtew0YAUQ+Pfw3gJYO6UlyfPSzGtnFOf61Y9wXscwCKEYf4/tzc3GHDftFca31thM1yQohjehBnKLFAEpDP56sAHh51+1ardf7c3Bynnk6GHXG732itez5zaz6f77yATcYY4p5Wq8VFk+77u/kRgK9G2PQ4IcRDexBp6LBAYuqeunp7jCGmtdYfSDDS0BJCCABRT0/05QE8IcTZAA6Jun2r1XrLwsLCTLKpsqndbneOQt4Q4YL6rkKIH+Xz+ahHgNTFAomh+27yg90lUqP4i9b6uHa7HeWOEnqQfD5/WIwL4T1fKrhUKj3bsiwVY4hbtdaXJhgp87TW3wQwFWHTkhDi3B5EGioskBgsy3o2gDjz7NyktZ5LMNJQsyzrJRE3vQdAz9cLtyzrsph3ejWG+KL5VkW8FtL5eZxw30ErRcUCiUgIsU33dERUmu8mkzMyMnIIgOdE3HzT3Nxcz16Z8/n8ziMjI7cBeHzMoV4qhIh6jWdgtVqtr0Q8Csnn83leUI+BBRJBPp/fUQjxRQBRZ3Bd0Fo/RWv904SjDaVSqfRSAJ+NcSrx/yQc6YFya9euvQ7ACxMYq/N7N6zPfWxVu93+u9b6ZQC+vdptLcu6MJ/Pr/QB0tU+dzLwWCARrF279p1xZm9ttVonDvFSo4kqlUrjlmV9JM7vstb6pmRT/ZMDALwswfEmSqXSsxMcbyBorRe11lHWzikJIVY6azavVT4IC2SVhBC7AogzPfQPFxYWbk0w0tAaGRl5vmVZG2JMQtjxS631jxKM1XOWZcV5en1gaa2nOz/P1W5nWdbpK/zSWEsnDyIWyCp1lxvdNur2XN88nnw+v0OpVDpiZGSkU8IfT2DIjyUwRr8dNDIyEme99EGwxZsRWq3W1RHG2mNkZGQls0hEXjZ5UEV+IRxGpVJpv5hzF31yYWEh6qp5g2LXFU4lsW33msbuAB4lhHgkgCd0Twkltfysnp+fz+KNDA8BcHOpVPrtEK+Xv8XrXVrryy3LOjXCA6Unl0qlmYWFhaUuxrNAHoQFskJCiJ0ty/pgjNsw57TWXBntvqeAjzMdAt2H8trt9h9M54jKsqwr8/n8U7rroAybLRZIu92+u9VqvbV7XWxVLMt6Vz6f/0S73d7arBCtVacccDyFtUJCiI/EuA2z887lOVrr3yYci6L7RrvdjjIZX5rsY1lW1FuXs267rX2i3W7/B4DfRxhzT8uyDlvi87wG8iAskBXoTtN+aIwhrpqbm/tFgpEonm9qrZ+rtc78/GNCiDNMZzBkq2dPtNabtdaVKEcMXHRqdVggy8jn87talnVFjCF+Pj8//7YEI1E8P52fn3+R1jrq2ulpc1CpVIqzBk1WLfnshtZ6U6vVujjCuM8XQuwfPdZwYYEsY+3atZcD2CPi5ptbrdZr2+32XxOORdH8YH5+vtJut//XdJAHWYzyENz9LMt6zxDOLrvsw39a64ujnMoSQnBdnhVigSxBCLEXgCNiDPG1hYWFvszySssKtdaHtNvtBdNBtuA2AC6A30Xcfs/uNbphsuwNQO37Jg6Lcp1r/cjIiBst1nBhgSwh5vrmfOYjHe4BcKHW+rFa6zSWR1Nr/ea5ubl7Wq3WVTHGeV6pVHpBgrkGgtb6BgBR7lK7LZ/P79qDSAOFBbIF+Xw+NzIycgmAV0UcovPO59CFhYUvJhyNVuerWuunz83NvVVrncrTiK1W61Va65/gvhe7d3VXp4zEsqzJfD6/faIB02tFr13d+eaiHIU8bO3atXHW+RkKLJAtEEKcDOANUbdvtVre3NzcbcmmohX6n1ar9Q6t9d7z8/MHaK2/azrQEi5aWFj45P3/p91ut1qt1htjjPdoIcRZyURLvRW/ds3Pz3eK4I8R9nGiEOJREbYbGiyQBxFC5CzLemuMIf7cbrcvSzASrdz1Wuu9FhYWlNb6jpSvnXGH1vpfFpdqt9u3AIj8vJBlWad1fodjpxsg7Xb7dwCeH2HThwghju1BpIHBX7QHyefzx8e466pz9PEurXWqX7kGxJ8AfAvApNb6eVrrXebm5o7VWv/FdLAV+IHWen+t9b9MjaG13txqtVYyL9PW7JbP54+KF2/wzM3N1QFEOaV8TD6fjzNZ50DjVCYPIISwLcuKcu/4/TovDBclGGkQ/ReAb67waztF3G61Wp2juk5h/KF7jeDHWus/9Thnr/xJa/0SrfVWby/VWr/HsqwDAVSi7MCyrIuEENNa6yBW0gGjtX6jEKLzfV2zis2kEOL0hYWFC3sYLbNYIF1CiM7H+wHsHHGIv2mtX9Nut7nozNK+MDc39xbTIQxZbLVaR2utf77UF7Xb7bbW+mAhxO0AnhhhPw/vbvtUrfV89LiDRWv9fSHEfwA4cjXbWZb1JiHEp3qXLLt4CqtLCPF6AIfEGOIUrfV3EoxEg+fzCwsLn17JF3ZPb0WZmvx+nRI5Psb2Ayni+unFboGs5shlKLBA7iuP/QC8J8YQ/0drnfWJ+ai3/kdrvao7++bn52/ubBdjn6/N5/M7xdh+4LRarW8A+F6ETf8dwNN6ECnThr5A8vn8dkKIDy41u+cymlrr47XWCSejAfJdrfXeWuvZ1WzUbrebrVYrzsOsa9euXct52B6g3W7fey0k4uaPSDhO5g19gQghzo4xTXvnHc2btNZhsqlogGit9Ut1xHcYWuvrOwUUY/+nCyEeG2P7gaO1/hKAOM/bUNdQF4gQwrIsK86DV79tt9vvTzASDZ7va61XvU73/bqLG8W5FtI5wj4lxvYDaW5u7l0AfmI6R9YNdYHk8/kzAOwQdftWq3XhIKwpQek2Pz9/S/f256heKYRYl2CkgdBqtfjAb0xDWyAjIyMTlmXFOT98qdY6zuR3RCvSbrfv1FofAOCnEYcQQohvCCEenXC0TNNavw/Az0znyLKhLJBSqfR8AJ13dVEnnrthbm7uDUusnUyUKK31na1WK87p1oIQgu+4H6Ddbm+OcUGdhrVALMuKNU271prTtFPfdZ8hibM08vOFEP+eYKTM01p/qvM/pnNk1dAVSKlUOgiAE2OIm5Z7kpioV1qt1uVxthdCVJNLMxhizj021IaqQPL5/E6WZb0vxhC/m5+fPy3BSESrorW+BsAdMYY4TgjxlAQjZZ7W+sIY15eG2lAVyNq1ay8CsGfU7Vut1qntdnvVaywTJaXdbt/darXOiDHENkKIKznl+//XnXvsiQA4b9gqDc1kiiMjI48HcEKMIf5mWdYhIyMjcebLSoTW+jyeRhteCwsLnxsZGfl8jLnbniGEqGqt351wtMzSWreFEO8F8A7TWbJkKApECGED+Fzn3VeMYbYHcEyCseLo/KKzQIaY1vpIIcR/AbAjDnGBEOJLWusfJBwts+bn52/sTv3yENNZsmLgD2Pz+XynQN4HQJrOQpQUrfUfYi5/u70Q4qrO3wfdp91u/6rVavHZrlUY+AKxLOtwAM81nYMoaVrrjwH4eowh9hdCvDLBSJmntfYA/Nl0jqwY+AIBsLfpAES90J1ZNtYtqJZl8bbeB2i32w0AN5jOkRXDUCBEA6vVat0KIPJkjQCeViqVDkgwUuZprTsFwlkmVoAFQpRh7Xa7HfNaSOco5EohRNRpfQaO1vq7AA5niSyPBUKUcVrrDQAuiDHEPkKI6Xw+v2OCsTJtbm7u4wA+ZDpH2rFAiDKu3W53XvDOAfCjGMM8w7Ks8QRjZZ7WOs46LEOBBUI0IFqt1hVxthdCnJbP5/ma0KW1/i8At5vOkWb8ZSEaEFrrD8ZceOrJQojjE4zUS3251ZbTvS+NBUI0INrt9mKr1Yp1W65lWefl8/ldk0vVM3P92InWegbAZ/uxryxigRANkIWFhc4L3vdiDLHr2rVr0zJlTypord9vOkNardm8ebPpDERElEE8AiEiokhYIEREFAkLhIiIImGBEBFRJCwQIiKKhAVCRESRsECIiCgSFggREUXCAiEiokhYIEREFAkLhIiIImGBEBFRJCwQIiKKhAVCRESRsECIiCgSFggREUXy/wIAAP//w7YMhTZdnugAAAAASUVORK5CYII=;" vertex="1" parent="BLccHEiTrVzVRM0DmXQl-77">
          <mxGeometry x="757" y="482" width="65" height="65" as="geometry" />
        </mxCell>
        <mxCell id="BLccHEiTrVzVRM0DmXQl-85" value="" style="shape=image;verticalLabelPosition=bottom;labelBackgroundColor=default;verticalAlign=top;aspect=fixed;imageAspect=0;image=https://upload.wikimedia.org/wikipedia/commons/thumb/6/67/Kubernetes_logo.svg/798px-Kubernetes_logo.svg.png?20171007185746;" vertex="1" parent="BLccHEiTrVzVRM0DmXQl-77">
          <mxGeometry x="560" y="6.7" width="131.41" height="23.22" as="geometry" />
        </mxCell>
        <mxCell id="BLccHEiTrVzVRM0DmXQl-86" value="" style="shape=image;verticalLabelPosition=bottom;labelBackgroundColor=default;verticalAlign=top;aspect=fixed;imageAspect=0;image=https://upload.wikimedia.org/wikipedia/en/thumb/f/f4/Docker_logo.svg/512px-Docker_logo.svg.png?20220429205317;" vertex="1" parent="BLccHEiTrVzVRM0DmXQl-77">
          <mxGeometry x="715" y="10" width="78.45" height="19.92" as="geometry" />
        </mxCell>
        <mxCell id="BLccHEiTrVzVRM0DmXQl-87" value="" style="shape=image;verticalLabelPosition=bottom;labelBackgroundColor=default;verticalAlign=top;aspect=fixed;imageAspect=0;image=https://upload.wikimedia.org/wikipedia/commons/thumb/0/04/Terraform_Logo.svg/512px-Terraform_Logo.svg.png?20181016201549;" vertex="1" parent="BLccHEiTrVzVRM0DmXQl-77">
          <mxGeometry x="225" y="2.56" width="144.91" height="34.81" as="geometry" />
        </mxCell>
        <mxCell id="BLccHEiTrVzVRM0DmXQl-88" value="" style="shape=image;verticalLabelPosition=bottom;labelBackgroundColor=default;verticalAlign=top;aspect=fixed;imageAspect=0;image=https://upload.wikimedia.org/wikipedia/commons/thumb/1/17/GraphQL_Logo.svg/1920px-GraphQL_Logo.svg.png;" vertex="1" parent="BLccHEiTrVzVRM0DmXQl-77">
          <mxGeometry x="121" y="205" width="40" height="40" as="geometry" />
        </mxCell>
        <mxCell id="BLccHEiTrVzVRM0DmXQl-94" value="" style="shape=image;verticalLabelPosition=bottom;labelBackgroundColor=default;verticalAlign=top;aspect=fixed;imageAspect=0;image=https://upload.wikimedia.org/wikipedia/commons/thumb/c/c5/Nginx_logo.svg/2880px-Nginx_logo.svg.png;" vertex="1" parent="BLccHEiTrVzVRM0DmXQl-77">
          <mxGeometry x="145" y="100" width="96" height="20" as="geometry" />
        </mxCell>
        <mxCell id="BLccHEiTrVzVRM0DmXQl-83" value="" style="shape=image;verticalLabelPosition=bottom;labelBackgroundColor=default;verticalAlign=top;aspect=fixed;imageAspect=0;image=data:image/png,iVBORw0KGgoAAAANSUhEUgAAB9AAAAfQCAMAAACt5jRLAAAAY1BMVEX///9LX6v2qBxLX6v2qBxLX6v2qBxLX6v2qBxLX6v2qBxLX6v2qBxLX6v2qBxLX6v2qBxLX6v2qBxLX6v2qBxLX6v2qBxLX6v2qBxLX6v2qBxLX6v2qBxLX6v2qBxLX6v2qBwcmIRGAAAAH3RSTlMAEBAgIDAwQEBQUGBgcHCAgJCQoKCwsMDA0NDg4PDwFagsVAAAPYZJREFUeF7s2kFqwzAQhtEighEmGGGMEcKIuf8pu+m2tGlMrZD3bvCtfgbm470BAAAAAAAAAAAAAAAAAAAAAAAAAAAAAAAAAAAAkO9lq/WIL63Wtcz5VQIAgFz2I77RtmUaPAAAmEqNn/R9uY0aAABM6xG/1EbcdAAgLUc8pN3TUAEAQN7icX0d50wHAHKNP9pGmnQAMOcvPOkAwK3Gk7Z0aQAAkNZ4Xl8uLAAA5h6naNNFAQBA2uM05ZICACD3OFG74DkOAChxrj7/cwAAkOon+3ZoBDEMBEHQSEjogYGB6vKP8qEDWEtHupMYNPW533USADCe2uA+OLABAGPVFs+xogMAc9Uma1xHAACzqhQdAPS8v+gAoOeKDgB63l90ANBzRQcAPe8vOgDouaIDgJ73Fx0A9FzRAUDP+4sOAHqu6ACg5/1FBwA9V3QA0PP+ogOAnis6AOh5f9EBQM8VHQD0vL/oAKDnig4Aet5fdADQc0UHAD1XdADQ87zoAKDnig4Aeq7oAKDnedEBQM8VHQD0XNEBQM/zogOAnis6AOi5ogOAnudFBwA9V3QA0HNFBwA9z4sOAHqu6ACg54oOAHqeFx0A9FzRAUDPFR0A9DwvOgDouaIDgJ4rOgDoeV50ANBzRQcAPVd0ANDzvOgAoOeKDgB6rugAoOd50QFAzxUdAPRc0QFAzxUdAPT8LToA6LmiA4CeKzoA6LmiA4CeKzoAeq7oAKDnig4Aeq7oAKDnig6Anis6AOi5ogOAnis6AOi5ogOg54oOAHqu6ACg54oOAHqu6ADouaIDgJ4rOgDouaIDgJ4rOgB6XooOAHqu6ACg54oOAHoeFx0A9FzRAUDPFR0A9FzRAWD+2bsDDIuBIIqiRER8bUR8ERHx9r/KMcAsYJj/OGcTV7VqlU+g6ACg54oOgJ4rOgDouaIDgJ4rOgDouaIDoOcoOgB6rugAoOeKDgB6rugAMIKiA6Dnig4Aeq7oAKDnig4AIyg6AHqu6ACg54oOAHqu6AAwgqIDoOeKDgB6rugAoOeKDgAjKDoAeq7oAKDnig4Aeq7oADCCogOg54oOAHqu6ACg54oOACMoOgB6rugAoOeKDgB6rugAMIKiA6DnKDoAeq7oAKDnig4AIyg6AHqOogOg54oOAHqu6AAwgqIDoOcoOgB6rugAoOeKDgAjKDoAeo6iA6Dnig4Aeq7oADCCogOg5yg6AHqu6ACg54oOAEvaKToALE/KKToATHfaKToAXGmn6ACwp52iA8Ar7RQdAOYn7RQdAM60U3QA+Mq/U3QA8OCu6ABwpJ2iA8CaeooOAHdQdADcWEPRATCgR9EBwIAeRQeAOyg6AAZ0FB0AV1NRdAD8QU8UHQDeaafoADClnqIDwEg9RQeAIyg6AF7cUXQAvLij6AB4cU+i6ADwpJ2iA8CaeooOAFvqKToAHKmn6ADwpJ2iA8CcHyg6AHbiUHQA7MSh6AA4naroAHCmnqIDwJ16ig4A6afoAJB6ig4ASz4Mig6Ab+iKDoCgo+gACDqKDoCgo+gACLqiAyDoKDoAgo6iAyDoKDoAgq7oAJB+ig4A6afoAPCknqIDwJl6ig4AR+opOgBsqafoADBST9EBYEk/RQeA9FN0ADhTT9EBYE89RQeAV+opOgBM6afoAHClnqIDwJZ6ig4AS/opOgDcqafoALCnnqIDwJx+ig4AV+opOgCM9FN0AHhST9EBYEs9RQeAOf0UHQDe+QsoOgBGdBQdACO6ogPA9KSeogPAln6KDgB36ik6AKzpp+gAcOQDoOgA2ItTdAB4pZ+iA8CefooOAFfqKToAzE/qKToArOmn6AAwgqIDYDEORQfA3TUUHQBFR9EBUHRFB0DRUXQAFB1FB0DRUXQAFF3RAVB0FB0ARUfRAVB0FB0ARVd0ABQdRQdA0VF0ABQdRQdA0RUdAEVH0QFQdBQdAEVH0QFQdEUHQNFRdAAUHUUHQNFRdAAUXdEBUHQUHQBFR9EBUHQUHQBFR9EBUHRFB0DRUXQAFB1FB0DRUXQAFF3RAVB0FB0ARUfRAVB0FB0ARVd0ABQdRQdA0VF0ABQdRQdA0RUdAEVH0QFQdBQdAEVH0QFQdEUHQNFRdAAUHUUHQNFRdAAUXdEBUHQUHQBFR9EBUHQUHQBFR9EBUHRFB0DRUXQAFB1FB0DRUfTfAFB0RQdA0VF0ABQdRQdA0VF0ABRd0QFQdBQdAEVH0QFQdBQdAEVXdAAUHUUHQNFRdAAUHUUHQNEVHQBFR9EBUHQUHQBFR9EBUHRFB0DRUXQAFB1FB0DRUXQAFF3RAVB0FB0ARUfRAVB0FB0ARVd0AFB0RQdA0VF0ABQdRQdA0VF0ABRd0QFQdBQdAEVH0QFQdBQdAEVXdAAUHUUHQNFRdAAUHUUHQNEVHQBFR9EBUHQUHQBFR9EBUHRFB0DRUXQAFB1FB0DRUXQAFF3RAVB0FB0ARUfRAVB0FB0ARVd0ABQdRQdA0VF0ABQdRQdA0VF0ABRd0QFQdBQdAEVH0QFQdBQdAEVXdAAUHUUHQNFRdAAUHUUHQNEVHQBFR9EBUHQUHQBFR9EBUHRFB0DRUXQAFB1FB0DRUXQAFF3RAVB0FB0ARUfRAVB0FB2APys6ig6AoqPoACg6ig6Aois6AIqOogPwzV4dYDAMAwAAFFVRMVEVUTH5/y9nDBi2rmjG3ScuxJTXWuu9P+21lpzjbPR/YXQApmV9Pf5u327R6IMzOgBh2Vr/pN5mo4/K6ACEVPqX2jobfUBGB2Ap/ZCWJ6MPxegAhNz6cSUafRhGB2Da+o/2NPzoGB1A55+1ZPTLGR2AkPtJNRr9WkYHIN37eWUy+nWMDsCDPTvAYBiKgigqIoiqqKqo+t7+d9lNvPwRztnENWY7q8V4KnqKogNwVJtzVfQERQdg/VaD5EhXdEUHYB/V67Mo+mSKDsCr2v02RZ9J0QFYzrrA2BU9QNEB3OfdHoo+i6IDsI26ylvRwxQdQM8VHUUH0HNFz1N0AD1XdBQdQM8VPU/RAfRc0VF0AD1X9DxFB9BzRUfRAfRc0fMUHUDPFR1FB9BzRc9TdAA9V3QUHUDPFT1P0QH0XNFRdAA9V/Q8RQfQc0VH0QH0XNHzFB1AzxUdRQfQc0XPU3QAPVd0FB1AzxX9XhQdQM8VHUUH0HNFz1N0AD1XdBQdQM8VPU/RAfRc0VF0AD1X9DxFB9BzRUfRAfRc0fMUHUDPFR1FB9BzRc9TdAA9V3QUHUDPFT1P0QH0XNFRdAA9V/Q8RQfQc0VH0QH0XNHzFB1AzxUdRQfQc0XPU3QAPVd0FB1AzxU9T9EB9FzRUXQAPVf0W1F0AD1XdBQdQM8VPU/RAfRc0VF0AD1X9DxFB9BzRe+HogP82asDGgAAGIZB/l1fRpccTBB+bnSMDuBzo/eMDuBzo2N0AJ8bvWd0AJ8bHaMD+NzoPaMD+NzoGB3A50bvGR3A50bH6AA+N3rP6AA+NzpGB/C50XtGB/C50TE6gM+N3jM6gM+NjtEBfG70ntEBfG50jA7gc6P3jA7gc6NjdACfG71ndACfGx2jA/jc6PuMDuBzo2N0AJ8bvWd0AJ8bHaMD+NzoPaMD+NzoGB3A50bvGR3A50bH6AA+N3rP6AA+NzpGB/C50XtGB/C50TE6gM+N3jM6gM+NjtEBfG70ntEBfG50jA7gc6PvMzqAz42O0QF8bvSe0QF8bnSMDuBzo/eMDuBzo2N0AJ8bvWd0AJ8bHaMD+NzoPaMD+NzoGB3A50bvGR3A50bH6AA+N3rP6AA+NzpGB/C50XtGB/C50TE6gM+Nvs/oAD43OkYHfI7Re0YH8LnRMTrgc4zeMzqAz42O0QGfY/Se0QF8bnSMDvgco/eMDuBzo2N0wOcYvWd0AJ8bHaMDPsfoPaMD+NzoGB3wOUbvGR3A50Z/w+gAx94dYDYUBQEUvSKioirii4rI/pfZTUTHcM4mrhnmPT1XdBQd0HMUfYCiA+i5oqPogJ6j6FMUHUDPFR1FB/QcRZ+n6AB6rugoOqDnKPoOig7oOYqOogN6jqLPU3RAz1F0FB3QcxR9nqIDeo6io+iAnqPo8xQd0HMUHUUH9BxFn6fogJ6j6Cg6oOco+jxFB/QcRUfRAT1H0ecpOqDnKDqKDug5ij5P0QE9R9FRdEDPUfR5ig7oOYq+HO9TQOk5ir4cz1NA6TmKvhyPgErPUfTluAdUeo6iL8c1oNJzFH033ueASs9R9N14BlTpOYq+G7eAKj1H0XfjElCl5yg6lu6AnqPow/gJqErPUXQ8AQvoOYo+i6P9AD1XdEXnHKDnKLqiG9EBPUfRFzCiA3qOomNEB/QcRR9gRAf0HEXHP6qAnqPo89yiA3qOom/Fd4Ceo+iK7kV3QM9R9AVcrgF6jqLjixZAz1H0IXbugJ6j6Ni5A3qOos+zcwf0HEVfiEfrAXqu6IrOu/0APVd0RecSoOcouqI7XAP0HEWfxxGg5yi6ortEB9JzFH0e7QfouaIrOl+tB+i5ois619YD9FzRFZ1b6wF6ruiKzr31AD1XdEXnN0DPUXRFF3RAz1F0HKIDeo6ifwIBeo6iK7qgA3qOoiPogJ6j6P9A0AE9R9ERdEDPUfQ1BB3QcxQdQQf0HEVH0EHPUXRF59UHAHqOouPpV0DPUXQEHfQcRVd0jtYDPUfRFZ1bG4Ge/7F3BxgOREEURZ82YowSMUYwItn/LrOIwktzziau+v3r96sBRf9cTJYAPUfR+/jOHqDnKDrW0AE9R9Gxhg56jqIrOvfsAXqOouOSO6DnKDruxIGeo+hRdLIF6DmKjodfAT1H0fe4ZgnQcxS9j0uWAD1H0bGFDug5ir7Hb9YAPUfRceIO6DmK3ufEHdBzFB133AE9R9H3OLID6DmK3sdfAD1H0RXdO+6AnqPoePYV0HMU/XMY0AE9R9ExoAN6jqL3GdABPUfRMaADeo6ib/CVNkDPUXT8lgX0HEVXdJ5HugA9R9H3+EkXoOco+h73dAF6jqLv8TjSBug5io4VdNBzFF3RuaUN0HMUHR/QQc9RdEXn/8jJgZ6DovO8pA3QcxQdPQc9B0Vncnag56DoTNoAPUfR0XPQc1B0Jm2AnqPo6DnoOSg6kzZAz1F09Bz0HBSdSRug5yg6eg56DorOpA3QcxQdPQc9B0Vn0gboOYqOnoOeg6IzaQP0HEVHz0HPQdGZtAF6jqKj56DnoOhM2gA9R9HRc9BzUHQmJwB6DoqOnoOeg6J36Dmg5yg6eg56Dorep+eAnqPo6DnoOSh6n54Deo6io+eg56DofXoO6DmKjp6DnoOi9+k5oOcoOnoOeg6KfiJ6DnoOis4E0HNQ9DY9Bz0HRWcC6Dkoepueg56DojMB9BwUvU3PQc9B0XmzdzfIacNAAEbFX0ICLgkNkAL2+v6n7A06aUtmJfu9S3yza8nSc9BzUPR0eg56DoqOnoOeg6Ln03PQc1B09Bz0HBQ9n56DnoOio+eg56Do+fQc9BwUHT0HPQdFz6fnoOeg6Og56Dkoej49Bz0HRUfPQc9B0Rug56DnoOh6Dug5KHo+PQc9B0XXc0DPQdHz6TnoOSi6ngN6DoqeT89Bz0HR9RzQc1D0fHoOeg6KrueAnoOi59Nz0HNQdD0H9BwUPZ+eg56Dous5oOeg6HoO6DmKruh6Diya7zmKruh6Dix+RetQdEXXc+AUrUPRFV3PgUO0DkVXdD0HniMdKLqeAw7EoeiKrufAJVqHoiu6ngNdtA5FV3Q9B1Z9ZANF13PAjTUUXdH1HHiJ5qHoiq7nwC0SgKLrOeCXMqDoCT0HXEEHRddzwIAOil59zwEDOii6ngMGdFB0PQdu0TpQdD0HdpEOFF3PAa+ygKLrObCK5oGi6znwHulA0fUccCQOFF3PgU3kA0XXc8DGHRRdz4FbpANF13PAxh0UXc+BLpoHiq7nwCmaB4qu50Af6UDR9RzwCR0UXc+BXeQDRddzwC10UHQ9By6RDxRdzwFn4kDR9RyI5oGi6znwHPlA0fUcEHRQdD0HumgeKLqeA4fIB4qu54Cgg6LrOfAz0oGi6zngvzKg6Pk9BwQdFF3PAUEHRc/vOSDooOh6Dgg6KHo1PQcEHRRdzwHX1kDR9Rw4RD5QdD0HBB0UXc+BLmoAiq7ngOdTQdHb7zkg6KDoeg5E+0DR9Rzoo3mg6HoOXKJ5oOh6DrxH80DR9RzYRfNA0fUc2ET7QNH1HOijeaDoeg6conmg6HoOdNE8UHQ9BzbRPlB0PQduUR1QdD0H3EQHRc/vOWDnDoqu54CdOyh6oz0H7NxB0fUcWMV8wa7U6Th+j+GpTBDgxTV4KXXaj9/hPs2eAx5ogX5T6rQdxoe7Lss0AY7FwW1R6rS+jg92LNMGHGLG4FTKLD6kD69l4oBFHzMGXanV6zA+zOe6TBlgRId+VWq1PI+PMfwoEwcY0eFS6rW9jw9wXhfAiA6W7pnehvE/3bcFcNAdLN2TLT/+L+f7Mh/AS4CT7tVaf8j5FwGnmDN4LnVb/9vi/Tq7nAOrPsC5uIot99fxL31sy/wAXYBXWuq2Pt7HLzvvl2VuAG+0wK004entK3P6oObgMjoY0Su3fD1+/jHmb7/Zu4PctmEoiqJPUBXGSA3GUFVGCFzvf5e1DWRSdNQ4URmfswRNLiT9Tz7mrgHldMdgTU8evj//fPn1x0D7y4/nx28BqCcw6N6XxzcPOQOwuwZLvgiAYT3dLxjTPQDb6FDzVQBMio7NtZ4BKDpM6R6AosMhtwCg6OCbO4Cig2/uAIoO+3QPQNGhpX8Aig7pH4CiQ8n2ABQd/EQHUHSY0z0ARYc1/QNQdEj/ABQdplwAKDoYcwdQdHAnOoCig6ADKDosuQJQdHCaO4Cig6ADKDo4WQZA0SH9A1B0yAWAooOgAyg6CDqAooOgAyg6HHMBoOhgDx1A0UHQARQdBB1A0eGQ7QEoOrg+FUDR4SndA1B0KOkegKLDkDMARQfnygAoOthaA1B0sLUGoOiwS/cAFB3G9A5A0eE13QNQdJjzfgCKDn6hAyg6OFYGQNFhyfYAFB3czAKg6DAEQNHBF3cARQcz7gCKDk6VAUgUHWreD0DRwUgcgKKDY18BFB3GAETRwQs6gKKDF3QARQcj7gCKDschWwNQdHAtC4CiQ0v3ABQdpmwNQNHBRByAosOa3gEoOhzHbA1A0cE16ACKDodsDUDRwcYagKLDOmRjAIoOBuIAFB2OUzYFoOig5wCKDnoOoOjoOYCig54DKDroOYCig54DKDp6DqDooOcAig56DqDooOcAio6eAyg66DmAooOeAyg66DmAoqPnACg6eg6g6KDnAIoOeg6g6Og5AIqOngMoOug5gKKDngMoOnoOgKKj5wCKDnoOoOig5wCKjp4DoOjoOYCig54DKDroOYCio+cAKDp6DqDooOcAig56DqDo6DkAio6eAyg66DmAooOeAyg6eg6AoqPnACg6eg6g6KDnAIqOngOg6Og5AIqOngMoOug5gKKj5wAoOnoOgKKj5wCKDnoOoOjoOQCKjp4DoOhra0s925WLIX9RrurZ3Fo7oecAiv6/VHy5Jjz/Zrrkfd6m7XoOgKK3VmspuZ2p7OvSPuUh6TkAir4u9akM+TBlV+d2+iB6DoCit7mWMZ9jKPvDTV/X9RwART+2utuiKWOpy6ue/2bvjnbktMEAjNpChKUEsSMHsQg57fs/ZVul0ihtp53skhlszrmd25E+/cY/fLjnACh6nqcuhmeK3fj+qus5AIq+XPomHEPspiXr+Y8BQNHzPHbhaNohbXp+HwAUfUvDcSPS/G/U9RwARc/z2ISHEnU9B2i7b1pF38UylpOPZpyznhcOoO2ntGx/W6yaP7JZpehb6mMoTHdZ9bxUAN20/Pe97Fhd0Y3mtzXDrOfFAWjG5a46NYp+vzwPMRStT1nPywEQx/vPV9f7mq7oOfWhBu1l0/MiAHQ/erI694p+rJprup4DDO+Zv7YxKvpRaq7peg4Qp/e2L09R0f9V6kOd2pQr6jmA6fyadEX/h3mIoWJ90vPjAeg+eoi69Yr+/YOIJtQuDoueHwpA3GPJeGkU/S85naUUzWXT88MA6PcJXh4V/U/LEMOJ9HMdPQcwnl8t8fRFz5cmnE0zbXr+dADttmfO+nMXfR3CMxjT9Rxg3Dlp04mLns7ciOaS9fx5ANL+y1rxnEXfphhOblj1/DkA4vrr/tYzFn0ZAiF0c+k9B9Dzq9yereipC9/QpKznACUGTtFzasIVccrF9BxAzxX99nvsGbaCeg6g54p++0tzkl5KzwH0XNG3IdxCtxTQcwA9V/QCci7peg7ouaIXkXNJ13NAzxW9ypxLup4Deq7o++ecbj1izwH0XNHzGApgiU3PAT1X9Ar3ziX92nMAPVf0VGbOvT3u2nMAPVf0uQnvQ7wco+cAeq7oSxfej2bW8wcA9FzRbapVeOFdzwE9V/T978IxZD3fH6Dnil77w3OP0q89B9BzRV+7sBeaRc+fAdBzRc9j2BP9pucPB+i5os8x7Is46fljAXqu6FsX9ke76PkDAXqu6FP4ORiznj8IoOeKvjThZyHOer4vQM8V/SmX4eg2Pd8VoOeKXuXquaV0PQf0XNFzH0pjSNdzQM8VvYZdNUO6ngN6rug1jOeGdD0H9FzRKxrPDel6Dui5ouchlMuQrueAnit6JbvndtL1HNBzRZ/CM9BnPd8NoOeKvhbfAV9V1XNAzxW9ieFpmPT8NkDPiyk6tJue3wDoeflFx904PQf0vKyiw6jnNwB6XnbRceyu54Cel190HLvrOaDn5Rcdx+56Duh5+UXH31fPAT0vtugQVz2/AvS82KLDRc+vAD0vtugwZD2/AvS81KJDm/Uc0PPyiw5x1XNAzysoOiQ9B/S8gqLDqOeAnldQdOizngN6Xn7Rod30HNDz8osOcdVzQM/LLzrEWc8BPa+g6JD0HNDzCooOg54Del5B0WHQc0DPKyg6tFnPAT2voegoup4Del5+0aFd9RzQ8/KLDnHVc0DPayg6iq7ngJ6XX3SIs54Del5B0SHpOaDnFRQdkp4Del5B0SHpOaDnFRQdkp4Del5B0SHpOaDnFRQdkp4Del5B0eGi54UA9FzRAdBzRQcAPVd0ANBzRQcAPVd0APRc0QFAzxUdAPRc0QFAzxUdAD1XdADQc0UHAD1XdADQc0UHQM8VnU8v3/sUCgCg54rOy8vn19cvb29vX3+75esfv355ff3l5SUcDYCe/86+Ha40DARhFF3CUkIIJSxLWUpZ5/2f0r+KotW2aaLnvMTlG5iXl39ddMZpKe0cP3VuZZmeHXYA9FzR87jU1uM2vdVlzGl9AOi5oh/m0nrcT29lPqS1AKDnip7n0uIxWplzejAA9FzRD8dTj8fqp6OpDqDnir5KzHcYdQD0XNHzfOqxrn664/kdAD1X9EM5x3Ocyz2GOgB6ruhT7fFMvU7pBgDouaIPXxza1z2+D+lXANBzRZ9qbMcvdjoAeq7oY+2xLb2O6XoA6Lmi5+USW3RZcroKAHqu6HOL7Wpz+g4Aeq7oufTYtl5y+gIAeq7oU4s9aFP6HAB6rujD8RJ7cTkO6QMA9FzRc+2xJ73m9A4Aeq7oY439efvHBoCeK/rYYp/aCkkH0HNFl3NJB9BzRd9DziUdQM8VXc4lHUDPFV3OJR1AzxU9t/g7Wk7/EICeK/pQ42+pQ7oCgJ6/sne3uW3zWABGb1RXdVXHUVXXVR1F4P5XOSgwA7yYSab5kGWSOmcJ/vOYFHn5pp7xGFlr+jnVZu6XTjqAnvMtctZNqUbTIZYEoOf8jIy1Y6rV2MZiAPScp7vIVjOkmg1NLARAz/kS2ermVLe5i0UA6Dnfi7+q5gobgJ7zeBeZ6ue0BXMf1QLQcxvu7SVtxaWNOgHouQ33Pm1JH8sD0HMb7pbnFukAem7D3fLcIh1Az22478a0RZdd1ANAz224H+a0TfMhKgGg5zbcm3ParnMTNQDQczPc2ylt2dRG+QD03Az3Y9q6Y7wNgJ7zrfjtdtvuAHrOr/K32227A+g5n4s/3e60O4Ce8xB5OaX/4BRFAtBzV9Cbf8565dLEawDoOV99PvchHUDPnYi7/edzH9IB9JxPbp//gxvpAHruRJzjcI7GAei5E3HNmJ7H2MQ6APTcjDjH2x12B9BzJ+LaOb2MuY2XAOg5X4rvuaID6Dk/XFdbjOtrAHruytoh/R3PFh1Az3kovueKDqDnPN0V33NFB9Bz7osbD0cvAP8F0HMejYczNA5Az82UuX3PFR1Az/mt58tQdAA9N1NmSO+n6AB6zi/n2511B9BzC/RMeq7oAHpuga7nig6g5xboeq7oAHpugb5P78c+AELP+eK9VK+pAui5BbqeKzqAnlugRzSX9DFcGgEA9NwCXc8VHUDPLdANfDUyDkDPLdCH9EEoOqDnfHEB3XV0AD23QHcB3XV0AD33DvpuTkth3sU2AXrOowPuH+WoO4CeW6Cf05I4xxYBes5T3FaflkUfGwToOQ/FH4jDwThAz3m6K/5AHA7GAXrOj7ipS1oel9gaQM/5VOGEOIZYD4CeGyrTpeugCwA9N/XVB3Sf0QH03FCZdT+g4zM6oOfcb/sGutvoAHruzpob6G6jA+i5O2vNlK6JqYmNAPScz3E7p3RrhroD6Lk7a26subsGoOfeWWvmdG3MTQDouXfWSngzFZvugJ7z3Ya7TXcAPTfG/fYb7th0B/Sc3+VvuGPTHdBzvhkpY7wMgJ6bElfySBnjZQD03JQ4M9w9jQ6g5x5ObdOaaOMKAPTcw6ljWhNjLA9Az11CP6R1cYj/AaDnLqG7gu4yOoCeu4Q+pKXgXByg59zHbezS+tgJAKDndtydiBv/6P8Y/3AuLhuAnvPTjLi/Gs/9cb+P5+z3x/48bnVeHICeG/s6pRLM577bxd/tuv48pxJMUSVAz7lzZe0Fl+Gwi7fYHYaLq2v5APTcjrsh7vPp0MR7NIfTbKR7BgA9t+NuiPs0tPER7TCljPVRH0DPuTNT5oWaF9p002UAPbfjboE+n/axlP1ptkRfH6Dndtwt0C+HJpbUHC6W6OsC9NyOuwX6eR/L258s0a8P0HN+WaD/22kX17E7GQC7CkDPzXG3QJ/7Jq6n6WdvtFwdoOfmuFugD01cVzNU9xUdQM+9nNrnvNle3sa7r+iAnvPdAn1sYx3taIl+JYCe83nrC/Spi/V0kyX6NQB6zlPcwpzVx/M1Nb0l+hUAes6PbT+zdmljbe2ljkfXAPTcmLhp25vOfQ3vogPouTFxXSHL8/oX6V28G4Ceu7Q2mqwypCyMUQdAz3mI9bUpB3MXt9TNKQdtvBOAnru0dkoZuOzitnaXlIFTvA+Anru01ghZRn9smqgAoOf8jPUd3dfK6PbeMQD03Etrhd5Zm9vIQzsXenMNQM99Qt9ndVvNh/R9FA/Qcx63+OX40kQ+mpsX/RwAem7ua4FH4k5N5KQ5FXgsDkDPzX09Ot6+8JaFY3GAnvMpVjdl1nNFn+KtAPTcJ/Q2u54rehtvBKDnbqEPev6MU1m/CoCeu4U+Z1cuRZ/jbQD03C30Ts8XLrpHVAE95ymfbnkqdLRz8U6AnvMr1tbM5sksPGHGVXRAz3nY0mskc+7RaqZ0M4coGKDnfIm1nb3HsvRLLca/AnrOXVZjX5376uy5vwOg5/ze0I57HyXoS9hzB9BzL7OcbCkv/UnCnjug59xvZqrM1EQZmkv2s2UA9NyZuM6w8sUPxpktA+g5Ge64ex/0mPtsGQA9dyZu8n347855v6EKoOfOxLUmyiw+TM8bqoCec5/lbrKvw13W3yUA9NyZuNGG+6ucM366BkDPzYlrbLgvvuluWByg5zzGyrryN9z9UgB67u3UwUZy1h8nhngFAD33duol3cAuSrRzce21AD3n6xYi1UeZen9+XgnQcz7Hug5OxC1/Ls6La4Cek/PcV4k65Dn9FUDPDX69+Cr8FlOOPxeAnjvk3riItfzVNTfRAT3nIe9AmX02+gP0CoCe863+c9v7KNk+w5voAHpukvtY/gLdLwag5ya5F3DE3Vf0KA6g52T/Froz21Nub6ID6LlD7gcL9OV/M2+iA3rOz9pfZpmjfHNmo2UA9NyttdEU97frMzsVB6Dnbq0V8dKIR9cCQM/dWsvqTNw5anB2Ku7/A/ScTwWc7zL0rMvqJCGAnru11jsSt/zNNScPAD3nqYgzcYaYDjmdigPQc9fQJ9+C36XNaRoPgJ67hl5Il+y5B4Ceu4a+/Mthng3r83mhDkDPBb2z436FPXfH3AE952sh60xfgqdsjrkD6Lm5Mmc77lc4524gD6DnfC7k1poPwXv31l4G6DmxrtlRbb8doOflE3Tbxlf4XCHogJ7zWPW28TFqcvS54iWAnvOrmKB7MqzNJOiAniPoRw+zXOEjuntrgJ7zvZxr6A5qj3kEHdBzDIo7FZMk019PAaDngn6FNaavwHv7Gy8A9Jz7moPeRF2aPIIO6DkmvxY0yN0497gGQM8RdEvMsfygA3qOoDum3efwxQLQcwR970XvDzk4U/g8QM+JnIMuSH4/QM8R9CZq0wj68wA9p+Yt46iPp22eB+g5RR3qco96rPRQIaDnCLqgCzqg5/yuOOhD1GfIIOiAnuP11F6Pyv8BAT1H0E8F9UjQzwGg54J++0/AXdRnX+AhBEDPEXTXqAUd0HMEvQKCDug5gl4BQQf0HEGvT7u1oAN6jqBHjQQd0HMEvTyCDug5gl4BQQf0HEGvgKADeo6gV0DQAT1H0LMk6ICeI+iurQk6oOcIeoEMlgH0HEGvgKADeo6gV0HQAT3H86nLE3RAzxH0c1pRH/Xp04rOAeg5gr5AjwTdDwjoOYI+RH2G8oMO6DmC7hPwKOiAniPoSxB0QM8R9ENak8mvH3OMjQE9/xd7d7fetHYEYHiiGGGMMcYIIxxFmvu/yh60T9VdyCZsKfrz+95BfPJFSzNL3XrxtOGtqyxia4r8JYv8gJ6z6KALkt8P0HME/RhbcxT0XwP0nC2/Az5bQ1//KwtAzxH02pD7ILEEgJ4j6E1sTSPovwboOe+3/IhZGHIf4BZvANBzBN1U134ZbywAPUfQq9VMxZmJuwag5wj6GyTJM+bVksALAD3nc0zqlFNqY1vaZQQd0HMEfZ+TKmNLylz9BAKg5wi6z4ucBP0lgJ7zNaaV5rrGf4VuDR3Qc76vJuheordLCTqg5wh67dh4/PkDKwKAnvO07WPjS2zHxeuKlwF6zqbvRsnGRe621gA9F/QFfdHb4touX+Zr8oCe827Te2t5srRm/ADQc3e/LmfM3SfDbjmtWBVAz/kQ02qcuY9/TZzpA0DP+bztvbW8mHEff2sN0HME/exJc/yTDUPugJ7zfeNj7nmILTjkkobcAT1H0Muc2PUO7nE3ewDoOc8xsZza7g6W0A25A3pOLH8qztvgcy5q3Q/Qc9wsE1VOrPWhtT9Xxd8C9Bw3y5zSfNfok4Ru2AP0nE9bn4rLxs6amThAzy2ijy4nt/cldDNxgJ7bW1v9VFzWMTK/GKDnCPrFI/r4D+guzAX0nIVfeuaBs87fc70eoOc8xrSKXPgjugf0LALQc+ytjTqzbdD9tsSfC9Bz7K1FldM72kF3rQzoOfbW1p+opoh1Kppl/vsD6DnG3Hc5g/O2b3H3PRtAz3mKqTUiNfo/PyYOAD0npnbJGdRW1rxCBz3HmPsEm+h2q/1SQwB6zseYWJFzaItYm6LNORQB6DnG3Mc7SHaf6SXncAtAzzHmPt7otvvi9vl6FgIAPec5plamQ/exD9x9Cx3Qcx62vbjWu8aaXHMWTQB6jjH3V6pyHkd3vo63tAboOabiDjmPtoy1KNv8I5bWAD3nW0xurlrdiliH4pYzCUDPcfnrWO+HHShXmYufMwD0HFNxx5zLKdbglLn8MQNAzzEVV+Rs9jbQXRMHeo6puNWfuWdbGohz4g56jqm41Z+5Z1MYiHPiDnqOqbgRz9yNuo/ZcyfugJ7zuJwxbufKV7/MPwToOR9icoecUbXFhTW3ygB6zpeYXru4out5G4Ce4wuqg8ql6H4VQM+HI6ZX5qwqPfflVNBzXC0zhmZhRdfzJgA9x9Uyg683VfQq53UKQM9xtczQVXRFr3Jmu1g50HN4nnvh2g0zxS2HsoQOeg7vYnqHnNttt6meW0IHPYdPMYMm59aWvsdiJA70HC/RBzrl7NpjLMGxzdmdY62Ax3l7jpfoRS7AJeZ3yX/Od1mAhx/drPASPapcgHrukhV19tY38w/oOV6il7kE7T7mtG9zALfEAV+7meA6916di3CO+ZxzEepYKeBz9xcQczjmMtzKmMfulstwjHUCPnR/BR9iDk0uQ3uKOZzaHJWdNTDgDl/u8hG9V5cxtbLOYTygA9+7/wM/Yg5Fm4txLu7s7XmvLWKVgE/dT+DxTmfCes0+prNvciCXygCP3c/g490+ovfqXUxjV+eb8IAODtzh2x2vbfWqKdpWVLkol1gl4GP3C/Acs9jlsrRv/iq9OLc5nA+hAw/P3XJgcS2q3E7S58+5W1/BlTLwxSP6f7SXXbyN3eWNc+4BHaygw1N4RP+vqozxlcv8UwNwhzu+uDaCXZtLdDvGuI63nIAHdLCyBp/DoPv/akd8TC+rNkdkBx340r0EfkTYRf+r5rSL4XanJidjBx2MuMOjR/Sf3c5lDFGebjklD+jg0lf45BH9l5rqUMQ/URyqJt+AB3TgqVsenLnHMRfvdvnDqBeHyy3fhs+sAe+7JcKZezS5Bs31vH9N1Yv9+bqSvygAO2s4cx/RPlejravzcb+LX9ntj+eqbnM19rFOwHO3SDhzjzpX51bX9fX8b9e6rptcnTrWCfjQLRTO3Hc5PcoAnLjjzH1cl5walwCcuOPMfabVNaysAe+634HHuJfVNU4B+HAq7nNf+1wct1gr4Hv3O/AUsynzNTARB3S/B+9i9XNxmIgDr9Dha8ymaHIqNEWsFfCx+z14jvkcciocYtvAp9DhQ8znmtPgGhsHZuLgW4RldCvogE+nYhV98YfuHAMw5I7rX2c8dMdHWYDH7lXgKZZ76I4Dd+B99zrwPhy6m3AHBB2r6G936I4Jd+BT90rw4NDdgTvg0ywYixtmn2+JfQCCjrE4d7q7wx0QdIzFvc4t185HUwFBx1hc7Np8G7S7AAQdt8VN5ZjD4Yo4EHT4HPOq8i1QBSDo+IjqhIpbjo9bEfcFBB0+xiJfo+MFOvCxez34EQO5AtaVr4CrX7G5FnHOcXEOQNCxubaMS91xhTvw0A2FzbX5B+MwEAd064JH9LLNsdCWsRXAj+4PwPNDzG2fP8FAHPCtGwqXy7gxzg1xgEV0XC4z/MY43BAHfOgGwuUy84+6Y8AdeOyGwmfR5x91x4A78NStDh7RiyaHodlaz4Gv3QB4RF/l8hoW1sBt7vD8uPaio+fgJTo8v4ue77RYWANcLYOej7eOjp4DX7qB0PP5i46eA++6aaHniq7ngMU19Lx3yeFcEAe4/RU9dwmsngPm3NFzRddzwBfX0PPhRddzwAda0HNF13PAWBx6ruh6Drj+FT3vnfN1OAfgER09X65jvgbHADyio+eKrueAR3T0XNH1HDDojp4P/Joq7T7uA/C9mwN6rui+fw74RAt63tvd8iXcygDc6I6er0PxUtG5FXE/gIenbgD0fLFXzFDdV8+B991M0HNXzLhOBnDojp73jm1iXQ340a0Uem7YvWe8HXh47gZAz43GGYcD7K6h50bjfF0NcKc7eu4e2J7X58CXroeer1TZJJlNGXcM+Nr10POVKuqkLmImgKKj5zbSbZ8Dio6e9/aNj6sBio6er19xzft1LaIHKDp6vmqnNu9Te4oeoOjo+dqVN99KBRQdPd+As2k4QNHRcw/pls8BRUfPF6G45D25FNEDUHQ995Du7Tmg6Oi5N+nengOKjp6PbVfn9tVl9AAUXc836djmtrXH6AEoup5vVVHlllVF9AAUXc83bF/nVtX7WDxA0dFz5+5O2wFFR897xTm351xED0DR9fwu7KrclmoXPQBF1/O7UdZengOKjp6bjpNzQNHR82U4NLl+zSHuEqDo6HnvuPakN8dYM0DR0XNJl3NA0dHz3r42CgcoOnou6XIOKDp6bi/d3jmg6Oj5aIpzk2vRvngrHICi6znHOtegPsbfAFB0Paes2ly2tirjNwAUXc8pjrdcrtuxiNcAUHQ9Z3dpc4mayy5eD0DR9ZzD8o7eq0P8IQBF13OK4zWX4zrgqB1A0fVc07dQcwBF13NNn/nsva3GqDmAous5h0sz2xTcIcYCoOh6zu50bXNa7fW0i5EBKLqesz/XOZX6vI+3A6Doei7qbb6ttj7v/8WO3WhWDERRGI1BHDHGiHEdMcj7P2VBS0tLtfcnrPUSn72XOwNQdD1nreM47+MYdV0eBUDR9ZxoI8//lKPF8ngAiq7nrFu//T3reevbk3c5gKLrOSVqHznP35o5eo2yvBBA0dFzSkTrPfPHts/M7L3FFUIOKDp6zhpfudUBRUfPAVB09BwARddzABQdPQdA0dFzABQdPQdA0fUcAEVHzwFQdPQcAEVHzwFQdD0HQNHRcwAUHT0HQNHRcwAUXc8BQNHf6TkAio6eA6Do6DkAiq7nAKDoeg6AoqPnACg6eg6Aous5ACi6ngOg6Og5AIqOngOg6HoOAIqu5wAoOnoOgKKj5wAoup4DgKLrOQCKjp4DoOjoOQCKrucAoOh6DoCio+cAKDp6DoCi6zkAKLqeA6Do6DkAio6eA6Doeg4Aiq7nAKDoeg6AoqPnACi6ngOAous5ACi6ngOg6Og5AIqu5wCg6HoOAIqu5wAoOnoOgKLrOQAoup4DgKLrOQCKjp4DoOh6DgCKrucAoOh6DoCio+cAKLqeA4Ci6zkAKLqeA6Do6DkAiq7nAKDoeg4Aiq7nAKDoeg6Aous5ACi6ngOAous5ACi6ngOg6HoOAIqu5wCg6HoOAIqu5wAoup4DgKLrOQAoup4DgKLrOQCKrucAoOh6DgCKrucAoOh6DoCi6zkAxIfrFV3PASDanvP8ZObeolyi6HoOAGXbj/Nbx6hF0V/XG3t1gNlAEIYBlJGuFRG1Fmuk8d//lFVQwEoz+g3eu8T7+RwALvdep/r9YnSfzwqA9rv5+enN6D6fEADLXi/ZV6NPxucArEe97LhOP7rPAdD5ub4afRI+B+By1J8di9En4HMA2me9ZWtGT/M5AOuj3vS8Gj3K5wC0rQbYm9FzfA7A0muIx2L0FJ8DcHvWKDejZ/gcgK0G2o0e4HMA2l5DHc3o/83nALReg3Wjpz8HwOdG9zkAPjd6/nMAfG50nwPgc6PnPwfA50b3OQA+N3r+cwB8bnSfA+Bzo+c/B8DnRvc5AD43ev5zAHxudJ8D4HOj5z8HwOdG9zkAPjd6/nMAfG50nwPgc6PnPwfA50b3OQA+N3r+cwB8bnSfA+Bzo+c/B8DnRvc5AD43+vyfA+Bzo/scAJ8bPf85AD43us8B8LnR858D4HOj+xwAnxs9/zkAPje6zwHwudHznwPgc6P7HACfGz3/OQA+N7rPAfC50fOfA+Bzo/scAJ8bPf85AD43us8B8LnR5/8cAJ8b3ecA+Nzo+c8B8LnRfQ6Az42e/xwAnxvd5wD43Oj5zwHwudF9DoDPjZ7/HACfG93nAPjc6PnPAfC50X0OgM+Nnv8cAJ8b3ecA+Nzo+c8B8LnRfQ6Az40+6+cA+NzoPgfA50bPfw6Az43ucwB8bvT85wD43Og+B8DnRp//cwB8bnSfA+Bzo399fLNnRzkJA0AURadUKFhIQTAUsdb9r1JjTPwwMRArTtpzfmYJNy8TCQCg54qeu+cA6Lmi6zkAeq7oOXoOgJ4rup4DoOeKnrvnAOi5ous5AHqu6KcybgcAPVf03Z/0vIhbAkDPFb3uB7fXcwA9H7M2Mpp3/bCaAEDPR+0QGRWnfkDdKgDQ85FbR0pNP5hjGQDo+egtIqXq3A+i2wQAej4Bz7NIqWjMcwD0/HKHSGp+7H+pqwMAPZ+K+8iqPv8q500RAOj5ZLzMYoxJ35cBgJ5PyUPE2JLe7coAQM8nZhGZrR77K503RQAQej41beRWNlfM9G5fxRcA9HxClpHdfHe6rOarmCgA9Pz1KfKLst7/PNSPzTy+AKDnJnpW5ap5PPXfnI+7+lvMAdBzX/TUiqqqm0+bqiojAwDulttt27YfLX2/h+16OYt/8cbe3Wg8r0QBGB2joioqaquoin3/V3lwANHP2zYzaVjrJh7zuz/puSU6ANTLNC+5ls/7dThAz81RBYDTdc5/WWKset5LLe8DgDr+KZ9x0fM+ruVdAHCKJf/oea0/2HMv1wDgfM93LFPV8/ZO5Q0AcJpzpUHS2/XcnjsA1Ft+Yhl/puf23AHgsuSH5uEneu6eOwDUe35hatpzxvIXAHBe8itz3bvn/pYBgCm/tZwP13OH6ADYbl8b2/WcWgCgUzdjt54b0AIAw2bdjJ167iU6AAxLbiYa9Zxb6QUAPc+MNj1nLv8AAPWZm4omPedZAKBnN6NJzymvAcA9Nxd9ey7oADBlA9Gz596tAcAlm4h+PRd0AKhLthHdei7oADBnK9Gp54IOANdsJ7r0XNABoC7ZUPTouaADQGRT0b7ngg4A52wsmvdc0AFgztaicc8FHQDO2V607bmgA8CcHcRmPaesAcA5u4iGPRd0AIjsI5r13PhUAKjZS2zSc+ayAgDX7Ca26Dm3sgIAz+wnNug5VwFYAWDInqJFz71aA4BbdhVf95yyAgC9Axpf9pyHAKwAcMreYuueuxMHAGN2F1/1nIsArAAQ2V9803OqAKwAsEtDY9OeO0IHgNxFbNhzr9AB4Jz7iE97zkkAVgAYcyexWc/tuAPAlHuJj3rOWFYA4J67iY167o47AMy5n9DzBuNtABD03uLtnjOUNQDIXcWbPWcuPwcAQc84fs9NTgVA0DOO33MLdAAEPaNvzy3QARB0LNABEHT8+gqAoDOVowNA0HnWsjcAfCyDG3EACDq38goARB4Dj1peAYApD4FlKC8BwCUPzxh0ABjy+BygA0AenynoAPDIw3MhDgBuuT/0HAC34vQcAGr+APQcAIfoeg4A1zw8PQeAU/4A9BwAe+56DgBjHp6eA0BdcgvoOQBGqKLnALgWp+cAcM/D03MAOOcm0HMAnKKj5wA4RddzAJjy8PQcAOoz/4eeA2AsOnoOgKdr6DkANt31HACG3AZ6DoCpa3oOAIa06DkAzHl4eg4A9ZHoOQCKjp4DoOh6DgCKrucAoOh6vjMAFF3PAUDR9RwARUfPAVB09BwARddzAFB0PQdA0dFzABQdPQdA0fUcABRdzwFQdPQcAEVHzwFQdD0HAEXXcwAUHT0HQNHRcwAUXc8BQNH1HABFR88BUHT0HABF13MAUHQ9BwBF13MAFB09B0DR9RwAFF3PAUDR9RwARUfPAVB0PQcARddzAFB0PQdA0dFzABRdzwFA0fUcABRdzwFQdPQcAEXXcwBQdD0HAEXXcwAUHT0HQNH1HAAUXc8BQNH1HABFR88BUHQ9BwBF13MAUHQ9BwBF13MAFF3PAUDR9RwAFF3PAUDR9RwARddzAFB0PQcARddzAFB0PQdA0fUcABRdzwFA0fUcABRdzwFQdD0HAEXXcwBQdD0HAEXXcwAUXc8BQNH1HAAUXc8BQNH1HABF13MAUHQ9BwBF13MAUHQ9B0DR9RwAFF3PAUDR+/T8P/buQNORIIqi6FFGRItoI6LF0/L/XzmAwQDvhTOXtX5iq666twMAiq7n4wGg6HoOAIqu5wCg6HoOAIqu5wAoup4DgKLrOQAoup4DgKLrOQCKrucAoOh6DgCKrucAoOh6DgDrpecAoOh6DgCKrucAoOh/ew4Aiq7nAKDoeg4Ait7tOQAoup4DgKLrOQAo+r89BwBF13MAUHQ9BwBFL/QcABRdzwFA0fs9BwBF13MAUPR+zwFA0fUcABS933MAUHQ9BwBF7/ccABRdzwFA0fUcABT9EQBA0WcBAEUHABS9DwAUHQBQ9D4AUHQAQNH7AEDRAQBF7wMARQcAFL0PABQdAFD0PgBQdABA0fsAQNEBAEXvAwBFBwAUvQ8AFB0AUPQ+AFB0AEDRZwAARQcAFL0PABQdAFD0PgBQdABA0fsAQNEBAEXvAwBFBwAUvQ8AFB0AUPQ+AFB0AEDR+wBA0QEARe8DAEWfDwAU/Zb5AEDRrxkPABT9XBkPABT9yHwAoOh75gMARb9kPABQ9CMfAQCKbnYNABTdS3cAUPQ9fQCg6I7oABBF39MHAIruiA4AUfR7xgMARf/KfACg6FvGAwBFf2Q+AFD0lfEAQNFv6QMARffNHQAU/cx8AKDol/QBgKLbLQMAiv7MJwCAolsWBwCKbhIdABT9mj4AUHSrZQBA0ff0AYCi2xUHAIp+5BMAQNEFHQAUXdABQNHTBwCKLugAEEVPHwAouqADgKK/0gcAim5sDQAU/UgfACi6oAOAou/pAwBFF3QAUPRrxgMARf+V8QBA0dMHAIpuag0AFH3PeACg6FvGAwBFX6kDAEV3hQ4Ain5PHQAouil0AFD0V8YDAEW/ZToAUPRzZToAUPRH6gBA0T2JAwBFf6YOABTdr9ABQNGP1AGAortBBwBF/506AFB0M+gAoOhb2gBA0Y2sAYCinyttAKDoRtABQNH3tAGAortABwBFf62UAYCi6zkAKPp5SRkAKLqeA4Civ2o9BwDWMf/+HADI4/0Bz5UmAOA2f58MAJDL1/tHzi11AMB6vn/gWOkDAJLt24f0857/BACw9ve3PNafdu0ghUEYCqDgR4KIiIQSJEgp3v+U3XVXGne/MHOJt3mRBwBQ2nVbnyMXAGA5buZ8iXwAgNJe16iWNecAwLSd14DnPkViAEDZfzT9rHOkBwBM6+NL1M+2lfgbAMC81tb754DrR92WGAIAAAAAAAAAAAAAAAAAAAAAAAAAAAAAAAAAAAAAvAH5k0p+VEVMXQAAAABJRU5ErkJggg==;" vertex="1" parent="1">
          <mxGeometry x="1102" y="454" width="22.5" height="22.5" as="geometry" />
        </mxCell>
        <mxCell id="BLccHEiTrVzVRM0DmXQl-89" value="" style="shape=image;verticalLabelPosition=bottom;labelBackgroundColor=default;verticalAlign=top;aspect=fixed;imageAspect=0;image=https://upload.wikimedia.org/wikipedia/commons/thumb/1/17/GraphQL_Logo.svg/1920px-GraphQL_Logo.svg.png;" vertex="1" parent="1">
          <mxGeometry x="623" y="451.63" width="25.25" height="25.25" as="geometry" />
        </mxCell>
        <mxCell id="BLccHEiTrVzVRM0DmXQl-90" value="" style="shape=image;verticalLabelPosition=bottom;labelBackgroundColor=default;verticalAlign=top;aspect=fixed;imageAspect=0;image=https://upload.wikimedia.org/wikipedia/commons/thumb/1/17/GraphQL_Logo.svg/1920px-GraphQL_Logo.svg.png;" vertex="1" parent="1">
          <mxGeometry x="630" y="458.63" width="3" height="3" as="geometry" />
        </mxCell>
        <mxCell id="BLccHEiTrVzVRM0DmXQl-91" value="" style="shape=image;verticalLabelPosition=bottom;labelBackgroundColor=default;verticalAlign=top;aspect=fixed;imageAspect=0;image=https://upload.wikimedia.org/wikipedia/commons/thumb/1/17/GraphQL_Logo.svg/1920px-GraphQL_Logo.svg.png;" vertex="1" parent="1">
          <mxGeometry x="623.88" y="572.75" width="25.25" height="25.25" as="geometry" />
        </mxCell>
        <mxCell id="BLccHEiTrVzVRM0DmXQl-93" value="" style="shape=image;verticalLabelPosition=bottom;labelBackgroundColor=default;verticalAlign=top;aspect=fixed;imageAspect=0;image=https://upload.wikimedia.org/wikipedia/commons/thumb/1/17/GraphQL_Logo.svg/1920px-GraphQL_Logo.svg.png;" vertex="1" parent="1">
          <mxGeometry x="892" y="452" width="25.25" height="25.25" as="geometry" />
        </mxCell>
      </root>
    </mxGraphModel>
  </diagram>
</mxfile>
